<svg width="1491" height="798" viewBox="0 0 1491 798" fill="none" xmlns="http://www.w3.org/2000/svg">
<path d="M404.449 193.681C405.824 193.984 407.199 193.075 407.199 191.258C406.855 190.652 406.511 189.44 405.48 188.834C404.45 187.925 401.7 189.743 401.7 191.258C402.044 192.47 403.075 193.378 404.449 193.681ZM413.727 251.852C413.04 251.549 412.009 251.549 411.322 251.549C408.917 252.458 407.886 257.002 409.604 258.82C411.322 260.335 413.384 260.941 415.789 260.335C416.477 260.032 417.164 259.426 417.851 258.82C417.851 256.093 416.476 253.67 413.727 251.852ZM405.137 177.321C405.137 177.018 405.137 176.715 404.793 176.412C404.45 176.109 403.762 176.109 403.419 176.109C402.388 176.715 402.388 177.321 403.762 177.624C404.45 177.624 404.793 177.321 405.137 177.321ZM425.411 222.767L424.724 223.07L425.411 223.373V222.767ZM435.72 130.663C436.407 129.755 436.063 128.543 434.689 127.937C433.658 127.634 432.971 127.937 432.627 128.846C431.94 130.057 432.627 131.269 433.658 131.572C434.345 131.269 435.376 130.966 435.72 130.663ZM431.596 223.07C431.596 223.07 432.283 223.373 432.627 223.373C432.627 223.373 432.971 223.07 432.971 222.767C431.94 222.161 431.596 222.464 431.596 223.07ZM441.905 203.074C442.592 202.468 442.249 201.862 441.561 202.165C441.561 202.165 441.218 202.771 441.218 203.074C441.218 202.771 441.561 202.771 441.905 203.074ZM389.674 37.0452C389.33 38.2571 390.361 39.1661 392.079 39.1661C393.453 39.4691 395.172 39.1661 395.859 39.7721C398.608 41.5899 401.357 42.4988 404.793 42.4988C405.137 42.4988 405.824 42.8017 406.168 43.1047C406.855 43.7106 406.168 44.0137 405.137 44.3166C403.419 44.6196 401.357 44.9225 399.639 45.2255C397.921 45.5285 396.203 46.1344 395.172 47.6492C394.484 48.5582 395.172 49.7701 397.233 51.5879C399.982 53.7087 402.388 55.8295 405.137 57.9503C405.824 58.5563 406.855 58.5562 407.542 58.5562C413.04 57.6473 416.82 52.4968 415.446 47.6492C415.102 46.4374 414.071 45.5285 414.758 44.3166C415.102 44.0137 415.446 43.7106 415.789 43.4077C416.133 43.4077 416.82 43.1047 417.164 43.4077C418.882 45.5285 420.944 47.9522 420.6 50.9819C420.256 52.4968 420.256 54.3146 419.913 55.8295C419.225 59.7681 419.225 60.0711 423.349 60.3741C426.785 60.3741 429.534 61.283 431.596 64.0098C434.001 67.9484 438.125 69.1602 442.936 69.1602C450.496 69.1602 458.399 69.4632 465.959 71.584C467.333 71.887 468.708 71.887 470.082 71.584C473.519 70.3722 476.611 68.5543 479.017 66.1305C480.048 65.2216 480.048 62.4948 479.36 61.5859C478.673 60.98 478.33 60.374 477.642 59.7681C476.268 58.8592 474.893 57.6473 473.175 56.7384C471.113 55.8295 470.77 54.3146 471.113 52.7998C471.801 49.1641 468.021 47.0434 467.333 44.0136C465.959 37.9542 460.805 34.6215 455.306 31.5918C452.901 30.3799 449.808 29.774 447.403 31.2888C444.997 32.8037 443.279 32.1977 441.218 30.9858C438.125 29.168 435.376 29.471 432.283 31.2888C431.596 31.5918 430.909 31.8948 430.222 32.1978C430.222 32.5008 430.222 32.5007 430.222 32.8037C429.878 32.8037 429.878 32.8037 429.534 32.8037C427.473 34.6215 425.411 36.4394 423.349 38.2572C422.662 38.8632 421.631 38.8631 421.287 37.9542C421.287 37.6512 421.287 37.0452 421.287 37.0452C423.349 34.6215 425.754 32.8037 429.191 33.1067L429.534 32.8037C429.534 32.8037 429.878 32.8037 429.878 32.5007C430.222 28.865 429.878 25.8353 426.098 23.4115C423.006 21.2908 421.974 18.2611 421.631 14.9284C421.631 13.1106 419.913 11.8987 418.195 11.5957C412.353 10.9897 408.229 7.96005 404.449 4.3244C403.075 2.80954 400.67 2.20358 398.952 0.991699C397.577 0.385757 394.828 1.29467 394.141 2.50656C393.11 5.53627 392.079 8.56596 390.017 11.2927C386.581 15.5343 386.237 20.6848 388.299 25.2294C390.017 29.471 390.361 33.1066 389.674 37.0452ZM395.859 179.442C395.859 179.442 396.546 179.745 396.89 179.745C396.89 179.745 397.233 179.442 397.233 179.139C396.202 178.533 395.859 178.533 395.859 179.442ZM440.874 210.951L439.843 210.648V211.254L440.874 210.951ZM376.616 248.519C376.959 248.216 376.616 247.913 376.616 247.61C376.272 247.307 375.928 246.701 375.928 247.004C375.241 247.307 374.21 247.61 373.867 248.216C373.179 248.822 373.523 250.034 374.554 250.034C375.241 249.731 375.928 248.822 376.616 248.519ZM176.281 367.89C175.937 369.102 175.937 370.314 175.594 372.131C175.937 373.646 176.281 375.464 177.312 377.282C178.343 379.706 181.092 380.615 184.184 380.009C189.682 378.494 192.088 374.858 193.119 370.314C193.462 369.708 192.775 368.799 192.431 368.193C189.682 365.466 185.902 364.254 181.435 364.254C179.03 364.254 176.625 366.072 176.281 367.89ZM183.497 67.6454C184.184 67.9483 185.559 67.6454 185.902 67.0395C187.964 64.6157 188.651 61.283 191.744 59.1622C192.431 58.8592 192.775 57.6473 192.431 57.0414C190.026 53.7087 188.652 50.0731 185.559 47.0434C184.872 46.4374 182.466 46.4374 181.779 47.0434C180.061 48.8612 178.343 50.679 176.968 52.7998C176.281 53.7087 176.281 54.9206 175.937 55.8295C175.937 62.1919 177.999 65.2216 183.497 67.6454ZM169.408 41.8928C171.47 41.5898 172.501 40.378 172.157 39.4691C171.814 38.2572 170.783 37.9542 169.408 37.9542C168.034 37.9542 166.659 39.469 167.346 40.378C167.69 41.2869 168.721 41.5898 169.408 41.8928ZM393.797 213.98C393.453 214.889 393.797 215.495 394.828 215.798C395.172 215.495 395.515 215.495 395.859 214.889C396.202 213.98 395.859 213.374 394.828 213.072C394.484 213.374 393.797 213.678 393.797 213.98ZM204.115 323.656C203.427 323.959 202.74 324.262 202.053 324.565C202.053 324.565 202.053 325.474 202.396 325.474C203.427 326.686 204.802 327.595 206.177 328.504C206.52 328.807 207.895 328.807 208.582 328.504C209.613 328.201 209.613 326.686 208.926 325.474C207.207 324.565 206.176 323.656 204.115 323.656ZM163.223 71.281C162.536 71.584 161.505 72.493 161.505 73.0989C161.161 76.7346 160.818 80.3702 162.536 83.7029C163.223 84.9148 164.941 86.4296 166.316 86.7326C170.439 87.3385 174.219 86.4296 177.655 84.0058C178.343 83.3998 179.03 81.8851 178.343 80.6732C177.999 80.3702 177.999 80.0672 177.655 79.7642C176.968 79.1583 176.624 78.5523 175.937 77.9464C174.563 76.1285 174.563 76.1286 176.624 74.0078C178.686 71.584 179.03 70.3721 177.655 68.8572C175.937 67.0394 173.875 67.3424 171.47 68.2513C170.096 68.8573 169.065 69.1602 167.69 69.4632C166.316 69.7662 164.941 70.3721 163.223 71.281ZM386.581 254.276C386.581 253.973 385.894 253.973 385.55 253.973C385.206 254.276 384.863 254.276 384.863 254.579L385.206 255.184C386.237 255.184 386.581 254.882 386.581 254.276ZM374.898 264.274C375.241 264.274 375.241 263.668 375.585 263.365C375.585 262.456 375.585 261.244 374.898 260.335C374.554 259.729 373.523 259.123 373.179 259.123C372.492 259.123 371.461 259.729 371.461 260.335C370.774 261.85 371.118 263.365 372.492 264.274C373.179 264.577 374.21 264.274 374.898 264.274ZM334.693 265.183C338.129 267.303 344.315 265.183 346.033 261.547C346.033 261.244 346.033 260.638 346.033 260.335C345.002 257.608 342.94 255.487 340.191 253.973C339.504 253.67 338.473 253.367 337.786 253.67C332.288 254.579 330.57 257.608 332.631 262.456C332.631 263.365 333.662 264.577 334.693 265.183ZM196.211 277.907C192.775 281.543 193.119 286.391 190.37 290.026C188.995 291.844 189.682 293.965 191.744 295.48C192.775 296.389 193.462 297.298 194.15 298.509C195.868 300.933 194.837 304.569 192.088 305.781C190.026 306.69 187.964 307.296 187.277 309.719C186.59 312.143 186.59 314.567 187.964 316.688C188.995 318.809 190.713 320.929 193.119 322.141C194.149 322.747 195.524 323.05 196.899 323.05C198.617 323.05 200.335 322.141 202.053 321.838C205.146 321.535 207.551 322.444 209.269 324.565C210.3 325.777 211.331 327.292 211.331 328.807C211.675 332.745 214.767 334.26 218.547 335.169C220.609 335.775 223.014 336.078 225.076 336.987C227.138 337.896 229.199 338.502 231.605 338.199C233.323 337.896 235.385 338.199 237.103 338.199V338.502C239.852 338.502 242.601 338.502 245.35 338.502C246.037 338.502 247.068 337.896 247.412 337.29C248.099 336.078 248.099 334.866 248.443 333.957C249.13 332.139 248.443 330.624 246.725 329.715C243.976 328.201 241.226 326.989 238.477 325.474C230.918 320.929 226.107 314.87 223.358 307.296C221.983 303.963 221.296 300.327 220.265 296.692C218.891 291.541 220.609 286.391 220.609 280.937C220.609 278.21 222.327 276.393 223.701 274.272C224.732 273.06 225.076 271.242 225.42 269.727C226.45 263.062 227.825 256.093 228.512 249.428C228.856 246.398 229.887 243.672 232.636 242.157C236.759 240.036 239.508 236.703 240.883 233.068C242.945 228.22 246.724 223.979 249.817 219.737C252.566 215.798 256.002 211.86 260.47 208.83C265.28 205.194 269.747 201.256 275.589 198.529C277.995 197.317 279.713 195.499 282.118 194.287C286.929 191.561 288.647 187.622 286.585 182.774C286.242 181.563 285.898 180.351 285.554 179.442C285.211 177.624 284.18 176.412 282.462 175.503C281.431 174.897 280.4 173.988 279.369 173.382C276.277 170.959 272.497 171.262 269.06 172.776C264.25 175.2 259.782 177.927 259.095 183.38C258.751 187.016 256.002 189.44 252.91 190.955C248.443 193.075 244.319 195.802 239.165 195.802C230.574 195.802 225.763 200.044 221.64 205.497C221.296 205.8 220.952 206.103 220.952 206.406C219.922 208.527 218.203 209.436 215.798 210.042C214.08 210.648 212.705 211.557 212.362 213.375C212.018 215.192 211.331 217.313 209.956 219.131C208.582 220.949 208.238 222.767 208.926 224.887C208.926 225.493 208.582 226.402 207.895 227.008C207.551 227.311 207.207 227.614 206.864 227.614C204.458 228.22 203.427 230.038 202.053 231.553C201.022 233.068 199.304 233.068 197.242 233.371C196.211 233.371 195.18 235.188 195.524 236.097C197.242 238.521 199.648 240.642 200.335 243.369C201.022 246.398 199.648 249.731 199.648 252.761C199.648 254.882 198.96 256.699 197.929 258.517C196.211 260.941 194.837 263.365 193.462 265.788C192.431 267.606 192.775 269.424 194.837 271.242C197.929 273.969 198.617 275.484 196.211 277.907ZM900.304 93.3979C899.273 93.0949 897.555 93.3979 896.524 94.0039C895.493 94.6098 894.806 96.1247 895.15 97.0336C895.493 100.366 897.555 102.79 901.335 104.305C902.366 104.608 904.084 104.305 904.771 103.093C905.115 102.184 905.458 100.972 905.802 100.063C905.458 96.7306 903.397 94.6098 900.304 93.3979ZM835.702 67.6454C837.764 70.3721 840.513 72.4929 840.513 75.8256C840.513 76.7345 841.887 77.9464 842.918 78.5523C845.324 79.7642 847.729 81.2791 850.134 81.582C853.227 82.188 855.976 83.7028 858.382 85.8236C860.443 87.6415 862.849 88.2474 865.941 87.9445C868.003 87.6415 870.409 88.2474 872.814 87.9445C873.845 87.9445 875.219 86.7325 875.906 85.8236C876.937 84.0058 876.937 82.188 879.343 80.9761C881.061 80.0672 882.435 77.9464 883.466 76.4315C885.872 73.0988 888.964 71.281 893.775 72.4929C894.806 72.7959 896.524 72.19 897.555 71.584C898.586 70.9781 899.617 70.0691 900.648 69.1602C900.991 68.5543 901.679 67.6454 901.679 67.0395C901.679 65.5246 902.71 64.9186 903.74 64.3127C904.428 63.7067 905.115 63.4037 905.802 62.7978C906.489 61.8889 907.52 60.6771 907.52 59.4652C907.864 57.9503 907.864 56.1325 907.52 54.6176C906.833 52.7998 905.802 50.9819 905.115 49.1641C906.489 45.5284 903.74 44.0136 900.304 43.4077C894.463 42.4987 888.621 41.2869 882.779 40.378C882.435 40.378 881.748 40.075 881.405 40.378C880.374 40.9839 878.999 41.2869 877.968 42.1958C877.625 42.4988 877.625 43.7107 877.968 44.3166C880.374 47.9523 881.748 51.5879 881.748 55.8295C881.748 56.7384 882.092 57.9503 882.435 58.8592C882.435 58.8592 882.779 58.8592 882.779 59.1622C882.779 59.4652 883.123 59.7681 883.123 60.0711C882.779 59.7681 882.435 59.7682 882.435 59.4652C882.435 59.1622 882.435 59.1622 882.435 58.8592C881.748 58.5562 881.061 58.2533 880.717 57.6473C877.968 54.0117 875.219 50.0731 874.876 45.5285C874.532 42.4988 872.47 41.2869 869.721 40.6809C866.972 40.075 864.567 39.4691 861.818 39.1661C861.131 39.1661 860.1 39.772 859.756 40.378C858.725 41.8928 858.038 43.4077 857.694 44.9225C857.351 47.0433 857.694 49.4671 857.694 51.5879H858.038C858.381 52.1939 858.725 52.4968 859.412 52.7998C858.725 52.4968 858.382 52.1939 857.694 51.8909V51.5879C853.914 50.376 850.134 50.376 847.385 47.0434C844.98 44.6196 841.2 43.7107 837.764 42.8018C836.389 42.4988 833.984 43.4077 833.297 44.9225C832.266 47.9522 831.235 50.9819 829.861 54.0117C829.173 55.2235 829.517 56.4354 830.204 57.3444C831.922 61.283 833.297 64.6156 835.702 67.6454ZM885.185 61.5859L885.528 62.1919L885.185 61.5859C884.841 61.5859 884.497 61.283 884.497 60.98C884.841 61.283 884.841 61.5859 885.185 61.5859ZM860.787 54.0117V54.6176V54.0117C860.1 54.0117 859.412 53.7087 859.069 53.4058C859.756 53.7087 860.1 54.0117 860.787 54.0117ZM859.412 110.97C858.382 110.667 857.694 110.97 857.351 111.879C857.351 112.182 858.038 112.788 858.382 112.788C859.069 112.788 860.1 112.788 860.787 112.788C860.787 111.879 860.443 111.273 859.412 110.97ZM860.443 112.485C860.443 112.788 860.787 112.788 860.443 112.485C860.443 112.788 860.787 112.788 860.787 112.788C860.787 112.788 860.787 112.788 860.443 112.485C860.787 112.485 860.787 112.485 860.443 112.485ZM75.9416 453.328C76.6289 453.934 76.9725 454.237 77.6597 454.843C78.0034 454.54 78.6906 454.54 78.6906 454.237C78.6906 453.328 78.3471 452.722 77.3162 452.722C76.6289 453.025 76.2852 453.328 75.9416 453.328ZM860.787 112.788C861.474 115.515 863.88 115.818 866.628 115.515C866.972 115.515 867.316 114.909 867.316 114.606C867.316 114.303 866.972 113.697 866.972 113.697C865.254 112.182 863.192 112.182 860.787 112.788ZM909.926 118.847C910.269 119.15 910.957 119.15 910.957 119.15C914.736 116.727 919.204 116.424 923.671 116.121C928.482 116.121 933.636 115.212 938.447 114.606C940.852 114.303 941.883 111.576 940.508 109.758C938.103 106.123 935.01 103.396 930.2 102.184C928.138 101.578 926.076 100.669 923.671 100.366C921.609 100.063 919.204 100.063 916.798 100.063C914.737 100.063 911.987 101.881 911.644 103.699C910.957 106.123 910.613 108.546 909.582 113.394C909.582 113.394 908.895 115.515 908.208 117.939C909.238 118.242 909.582 118.544 909.926 118.847ZM272.497 359.104L273.527 358.801L272.497 358.498V359.104ZM925.732 52.4968C932.261 54.9206 939.478 56.1325 946.35 57.0414C948.756 56.7384 950.474 56.7384 952.192 56.4355C955.972 55.5266 958.721 53.7087 959.752 50.0731C960.095 48.8612 960.439 47.6493 959.752 46.7404C957.69 43.4077 954.254 41.2869 949.786 41.2869C946.694 41.2869 943.601 42.8018 940.508 42.8018C937.072 43.1047 933.292 42.4988 929.856 42.1958C928.825 42.1958 928.138 42.4988 927.107 42.8018C925.045 44.0137 922.983 43.7106 920.578 43.4077C919.547 43.4077 918.516 45.2255 919.204 46.1344C920.922 48.8611 922.64 51.2849 925.732 52.4968ZM490.013 63.7068C490.356 64.9187 490.356 66.1306 490.356 65.5246C490.013 68.2514 489.669 69.4632 490.013 70.6751C491.044 74.9167 492.075 79.4613 493.449 83.7029C494.48 86.7326 495.854 89.7623 498.603 91.883C499.291 92.186 500.322 92.489 501.009 92.186C501.696 91.8831 502.727 91.5801 503.071 90.9742C508.225 84.6118 508.569 84.9147 517.847 79.4612C520.596 77.9464 523.001 76.1286 525.063 74.0078C526.781 72.4929 527.812 70.675 528.843 68.8572C529.53 67.9483 529.53 66.4335 529.186 65.5246C528.499 63.7068 527.125 61.8889 526.094 60.0711C524.719 57.3443 522.657 55.2236 519.221 54.6176C514.754 53.7087 510.974 51.2849 506.851 49.7701C502.727 48.2552 498.26 47.6493 494.48 44.9225C493.105 44.0136 491.044 43.7107 489.326 43.7107C488.638 43.7107 487.264 44.0136 486.92 44.6195C484.858 48.2552 482.797 51.8909 485.889 55.8295C487.607 58.2533 488.638 60.98 490.013 63.7068ZM498.26 134.299C497.916 134.299 497.573 134.905 497.573 135.208C497.229 136.117 497.916 136.723 498.947 136.723C499.978 136.723 500.322 136.117 500.322 135.208C499.978 133.996 499.291 133.693 498.26 134.299ZM505.476 130.057L506.507 130.36L505.476 130.057V129.451V130.057ZM485.202 126.725C489.325 127.028 492.075 124.907 492.762 121.574C492.418 120.968 492.075 120.362 491.387 119.756C491.044 119.453 490.356 119.756 490.013 119.756C488.295 120.968 486.233 121.877 484.515 123.089C483.828 123.392 483.484 124.604 483.484 125.21C483.827 125.816 484.515 126.725 485.202 126.725ZM554.271 70.9781C554.615 70.6751 554.615 70.3722 554.958 70.0692C554.615 69.4632 554.271 68.2513 553.584 68.2513C550.148 67.3424 546.711 69.7662 543.275 67.6454C543.275 67.6454 542.588 68.2514 542.244 68.5543C542.244 68.8573 541.901 69.4632 542.244 69.7662C545.68 72.7959 550.148 73.4018 554.271 70.9781ZM664.232 160.658C663.888 163.687 665.95 164.899 668.699 165.808C670.074 166.111 671.448 166.414 672.823 166.414C673.166 166.414 673.853 166.414 674.197 166.414C677.633 166.414 680.039 164.293 679.695 161.263C679.352 158.84 678.321 156.719 676.946 154.598C675.915 153.386 673.854 152.477 672.135 153.083C670.074 153.689 668.012 154.598 665.95 155.507C664.232 156.416 663.545 157.628 664.232 159.446C663.888 159.749 664.232 160.355 664.232 160.658ZM827.455 77.3405C827.799 77.6434 828.486 77.6435 828.829 77.6435C829.517 77.3405 829.86 76.4316 830.548 75.8256C830.204 74.9167 830.204 73.7048 829.517 72.4929C828.486 69.4632 826.424 66.7364 822.644 65.8275C821.957 65.5245 820.926 64.9186 820.239 64.6156C819.208 64.0097 818.521 64.0097 817.834 64.9186C817.49 65.2216 817.49 65.8275 817.834 66.1305C820.926 69.7662 824.362 73.7048 827.455 77.3405ZM779.347 148.539C779.691 148.539 780.034 148.236 780.378 147.933C780.034 147.63 779.691 147.327 779.691 147.327C779.347 147.327 779.004 147.63 778.66 147.933C779.004 148.236 779.347 148.539 779.347 148.539ZM572.827 93.3979C573.514 92.489 573.171 91.2771 571.796 90.3682C570.765 90.0652 570.078 90.0653 569.734 90.9742C569.047 92.1861 569.734 93.7009 570.765 94.0039C571.109 94.0039 572.483 93.7009 572.827 93.3979ZM1371.76 565.73C1371.42 565.73 1371.07 565.73 1370.73 566.033C1370.73 566.336 1370.73 566.639 1370.73 566.942C1371.42 567.548 1372.1 567.548 1372.1 566.639C1372.45 566.033 1372.1 565.73 1371.76 565.73ZM1333.96 335.472C1333.62 335.472 1333.62 335.775 1333.27 335.775C1333.27 335.775 1333.62 335.775 1333.62 336.078C1333.62 335.775 1333.96 335.472 1333.96 335.472ZM1381.73 565.73C1381.04 565.73 1380.01 565.73 1379.32 566.033C1378.98 566.033 1378.63 566.336 1378.29 566.639C1376.57 569.972 1374.85 573.001 1373.48 576.334C1373.14 577.243 1374.17 578.455 1374.85 579.364C1374.85 579.667 1375.54 579.667 1376.23 579.667C1376.92 579.364 1377.95 579.061 1378.29 578.455C1381.73 575.122 1382.76 570.88 1382.41 566.336C1382.41 566.336 1382.07 565.73 1381.73 565.73ZM1334.31 334.866C1334.31 335.169 1333.96 335.169 1333.96 335.472H1334.31C1334.31 335.169 1334.31 334.866 1334.31 334.866ZM275.246 786.596C275.246 785.99 274.902 785.99 274.558 785.687C274.902 785.99 275.246 786.293 275.246 786.596ZM1156.65 729.94L1156.99 729.637C1156.65 729.637 1156.65 729.637 1156.65 729.94ZM168.034 69.1602C168.721 68.2513 169.752 67.3424 170.096 66.1305C171.127 64.3127 169.408 61.8889 167.346 61.5859C165.628 61.283 163.91 61.586 162.192 62.4949C160.13 63.7068 160.13 65.8275 161.848 67.6454C163.567 69.1602 165.628 69.7662 168.034 69.1602ZM1484.47 170.353C1482.41 170.05 1481.72 168.535 1481.38 166.717C1481.03 165.808 1481.38 165.202 1481.38 164.293C1481.72 160.355 1480.69 157.325 1476.57 155.204C1474.85 154.295 1473.47 152.174 1472.1 150.659C1470.38 148.842 1470.38 147.933 1472.1 146.721C1475.54 144.297 1477.25 140.964 1478.29 137.632C1478.63 136.42 1478.63 135.208 1477.6 134.299C1473.82 130.36 1472.44 125.816 1472.44 120.968C1472.44 119.453 1471.76 118.847 1469.69 118.847C1468.66 118.847 1467.98 119.453 1466.95 119.15C1462.14 118.242 1457.32 116.424 1452.51 116.121C1450.8 116.121 1449.42 114.606 1447.7 114C1444.95 112.788 1442.2 113.394 1440.14 115.212C1437.39 117.636 1434.99 120.665 1430.52 121.271C1429.83 121.271 1429.15 122.483 1428.8 123.089C1427.77 124.301 1427.43 126.422 1428.46 127.634C1430.52 129.755 1432.93 131.875 1434.65 133.996C1435.68 135.208 1436.02 137.026 1434.99 138.541C1434.64 139.147 1433.61 139.45 1432.93 140.055C1432.58 140.358 1431.9 140.055 1431.9 140.055C1428.8 133.996 1421.93 130.663 1418.49 124.907C1413.68 121.271 1408.87 117.636 1401.31 118.847C1398.56 119.453 1395.82 119.453 1393.41 118.545C1389.29 117.333 1385.51 117.333 1381.38 117.333C1376.23 117.333 1371.42 117.03 1366.61 115.515C1362.48 114.303 1357.67 113.697 1353.21 115.515C1349.77 116.727 1347.02 115.818 1344.61 114C1342.21 112.182 1339.12 111.273 1335.68 110.97C1325.71 110.061 1316.09 107.335 1305.78 107.941C1304.41 107.941 1303.04 107.941 1301.66 107.638C1295.13 105.82 1288.95 107.638 1283.11 109.758C1278.98 111.273 1274.86 113.697 1270.39 113.697C1265.24 114 1260.77 115.515 1255.61 115.515C1253.55 115.515 1251.15 115.818 1248.74 116.121C1247.71 116.121 1247.37 117.03 1247.37 117.939C1247.71 121.877 1252.18 124.907 1251.15 129.149C1251.15 129.755 1252.52 131.269 1253.9 131.572C1257.33 132.481 1261.11 133.39 1263.52 136.117C1266.27 138.844 1268.67 141.57 1271.42 144.6C1272.45 145.812 1272.45 148.236 1271.08 149.145C1269.7 150.356 1268.33 151.265 1266.95 152.174C1264.55 153.689 1262.14 153.689 1261.11 151.871C1258.36 147.024 1253.55 145.206 1247.71 144.6C1246.68 144.6 1245.65 144.6 1244.96 143.994C1243.93 143.388 1242.56 142.782 1241.87 141.873C1240.84 140.661 1240.15 139.147 1239.12 137.632C1238.43 136.723 1238.78 136.117 1239.46 135.511C1242.56 133.087 1241.87 130.36 1239.81 127.937C1237.75 125.21 1234.65 124.907 1231.22 125.21C1229.5 125.21 1226.75 127.937 1226.75 129.149C1226.75 132.481 1226.75 135.511 1226.75 138.844C1226.75 140.964 1224.69 142.782 1222.63 143.085C1218.16 143.691 1213.35 143.994 1209.23 145.206C1206.13 146.115 1203.04 146.721 1199.95 145.812C1199.26 145.509 1198.23 145.812 1197.2 146.115C1192.04 148.539 1186.55 150.962 1181.73 153.689C1174.52 157.628 1166.62 159.446 1158.37 158.84C1156.65 158.537 1154.93 157.628 1154.24 156.113C1153.9 155.81 1153.9 155.507 1153.56 154.901C1151.84 147.327 1147.03 141.873 1139.47 137.935C1138.78 137.632 1138.09 136.723 1137.41 136.42C1129.5 131.875 1121.26 128.846 1111.64 133.693C1110.26 134.602 1108.2 134.602 1106.48 135.208C1099.26 137.632 1092.05 140.661 1085.86 144.6C1082.43 146.721 1078.99 148.842 1075.55 150.659C1073.15 151.871 1069.71 151.265 1068.68 148.842C1067.31 146.115 1065.25 144.297 1062.15 143.085C1060.09 142.176 1058.03 141.57 1055.97 140.661C1053.56 139.45 1051.84 140.358 1049.78 141.873C1047.72 143.388 1047.38 143.388 1045.31 141.873C1043.94 140.964 1042.22 140.055 1040.5 140.358C1039.13 140.661 1037.76 140.661 1036.72 140.055C1034.66 138.238 1031.91 137.632 1029.51 137.026C1028.48 136.723 1028.48 136.117 1029.16 135.208C1031.57 131.572 1031.57 129.754 1029.16 127.937C1028.82 127.634 1028.48 127.331 1028.13 127.028C1022.98 124.301 1017.48 122.18 1011.3 123.695C1008.55 124.301 1005.8 124.604 1003.39 125.513C1001.67 126.119 999.612 126.725 998.582 127.937C995.489 131.269 992.396 131.875 987.929 130.663C983.118 129.452 977.964 129.754 972.81 129.754C966.968 130.057 960.782 130.36 954.941 130.966C949.099 131.572 943.258 132.481 937.416 130.663C936.385 130.36 934.667 131.269 933.636 131.875C932.949 132.178 932.605 133.087 932.605 133.996C932.605 134.299 932.949 134.905 933.292 134.905C935.354 135.814 937.416 136.117 939.478 137.026C940.165 137.329 940.852 138.238 941.196 138.844C941.539 139.45 940.509 141.267 939.134 141.57C937.76 142.176 936.385 142.176 935.354 142.782C932.605 143.994 931.918 146.418 931.918 148.842C931.918 150.962 933.98 152.78 936.041 152.78C937.759 152.78 939.478 152.78 941.539 152.78V152.477V151.871L941.196 152.78C940.852 154.598 940.852 156.416 942.227 158.234C944.288 160.96 946.35 163.384 949.786 165.202C951.161 165.808 951.161 167.02 950.13 168.535C949.443 169.747 947.725 170.353 946.694 169.747C943.945 167.929 940.852 167.323 937.759 169.444C936.041 170.656 933.979 171.564 931.918 172.776C929.512 174.291 927.107 174.897 924.358 174.594C922.296 174.291 919.891 173.988 917.486 174.291C914.393 174.594 910.956 175.806 910.269 178.836C909.238 182.169 907.177 183.077 903.397 183.38C896.524 183.986 890.683 182.471 885.872 178.533C885.528 178.23 885.185 177.927 884.841 177.927C884.497 177.927 883.81 177.927 883.81 178.23C883.466 178.533 883.123 178.836 883.123 179.139C883.123 182.774 884.154 186.41 885.872 189.743C888.277 194.287 889.995 198.529 890.682 203.679C891.026 204.891 889.995 205.8 888.277 205.8C885.528 205.497 883.123 205.194 880.374 204.588C872.127 202.165 866.972 196.408 860.443 192.47C860.1 192.47 860.443 191.561 860.443 191.258C859.412 188.228 859.412 187.925 856.32 189.743C853.571 191.258 852.196 191.258 850.134 189.44C849.447 188.834 848.76 187.622 848.416 186.41C848.416 186.41 848.073 186.41 848.073 186.713L847.729 186.41C846.698 186.41 845.667 186.713 844.98 185.501C845.324 185.501 846.011 184.895 846.011 185.198C846.698 185.501 847.042 186.107 847.729 186.41C848.073 186.41 848.073 186.41 848.416 186.41C849.791 185.804 851.509 185.198 852.883 184.289C853.571 183.986 853.914 182.774 853.914 182.169C853.571 179.139 851.509 177.018 849.447 174.897C848.073 173.382 845.324 173.382 843.262 173.079C841.2 173.079 840.857 172.473 841.544 170.656C841.887 169.141 842.918 167.626 841.2 166.414C837.764 163.384 834.328 160.052 830.548 157.022C827.799 154.598 815.428 151.568 811.305 151.871C810.274 151.871 809.243 151.871 808.556 152.477C806.494 153.689 805.119 153.992 802.37 153.386C796.529 151.871 790.687 151.568 784.845 152.78C783.127 153.083 781.409 153.992 780.035 154.901C777.286 156.719 776.598 158.84 777.973 161.263C779.691 163.99 781.753 166.717 783.471 169.444C784.158 170.353 783.471 172.473 782.784 172.776C777.285 174.897 772.131 177.018 766.289 178.533C762.853 179.442 759.073 179.139 755.981 176.715C753.919 174.897 753.575 175.2 751.513 176.715C745.328 180.654 739.83 179.139 738.456 172.776C738.456 171.867 738.456 171.261 738.112 170.353C737.768 168.535 735.019 167.02 732.958 167.626C725.741 168.838 718.525 170.05 711.653 171.565C708.904 172.17 706.155 172.776 703.749 173.685C701 174.897 698.251 176.715 695.502 178.23C692.753 177.018 690.004 175.806 686.911 174.594C686.568 174.594 686.224 174.594 685.88 174.594C685.537 175.2 685.537 176.109 685.193 176.715C683.475 180.957 677.977 182.471 674.541 179.442C673.166 178.23 672.479 177.018 671.448 175.503C670.761 174.291 669.73 173.685 668.356 174.291C666.294 175.2 664.232 175.503 661.827 175.2C659.421 174.897 657.703 176.109 656.672 178.23C656.329 179.442 655.985 180.654 655.985 181.866C655.985 183.683 656.672 184.895 658.39 185.804C659.765 186.41 661.483 186.713 663.201 187.016C663.201 187.016 663.201 187.016 663.201 186.713L663.545 186.41C663.545 185.804 663.545 185.198 663.888 184.895C664.232 184.289 664.919 183.986 665.606 183.683C665.606 183.986 665.95 184.289 665.95 184.592C665.95 184.895 665.607 185.198 665.263 185.501C664.919 185.804 664.232 186.107 663.545 186.41C663.545 186.713 663.545 186.713 663.545 187.016H663.201C662.858 188.228 662.857 189.44 661.827 190.046C659.421 191.864 657.359 194.287 655.985 196.711C652.892 201.559 648.425 203.376 642.583 203.679C640.522 203.982 639.491 203.376 640.522 201.862C641.896 199.741 642.24 197.317 642.583 194.893C642.927 192.167 646.707 191.864 647.738 189.44C648.082 188.228 649.112 187.016 648.769 186.107C647.738 182.168 649.112 178.836 650.83 175.503C651.518 173.988 652.205 172.473 651.861 170.959C651.518 169.444 651.518 167.929 652.549 166.414C654.267 162.778 656.672 159.143 657.703 155.204C658.734 151.265 659.078 147.327 660.796 143.388C662.17 140.055 661.827 136.117 660.108 132.784C658.39 129.148 655.298 125.816 654.61 121.877C654.61 121.271 653.923 120.059 653.236 119.756C648.425 117.939 646.02 113.697 642.583 110.667C641.553 109.758 640.178 109.758 639.147 110.667C638.46 111.576 638.46 114.606 636.055 111.879C633.305 108.849 629.869 107.032 626.089 105.517C622.997 104.002 619.217 103.093 616.468 101.275C613.375 99.4574 610.626 99.1543 607.533 100.669C602.035 103.699 596.194 105.82 590.008 107.638C588.634 107.941 587.947 109.455 588.29 110.667C588.977 111.879 589.665 112.788 590.352 114C591.383 116.121 590.352 117.636 588.29 119.15C585.541 120.665 582.792 119.453 582.105 116.727C581.761 114.606 582.105 112.788 581.761 110.667C581.418 108.547 581.418 106.729 580.731 104.608C580.387 102.79 577.294 101.275 575.576 101.578C573.858 101.881 572.14 102.487 570.422 102.79C567.673 103.396 564.924 102.79 562.518 101.881C560.456 101.275 559.426 100.063 559.769 98.2455C560.8 94.3068 558.051 92.186 554.958 90.3682C549.804 90.9741 545.337 88.2475 540.182 88.2475C539.151 88.2475 537.777 89.1564 536.746 89.7623C536.059 90.0653 535.372 90.9741 535.028 91.5801C531.248 98.2454 529.874 105.517 530.561 112.788C530.904 117.333 530.561 122.483 536.746 125.513C539.495 126.725 538.808 129.755 539.495 132.178C540.526 134.905 540.182 135.208 538.121 135.511C535.028 135.814 531.592 135.814 528.843 137.329C527.468 137.935 526.781 138.844 527.125 140.358C527.468 141.57 528.155 142.782 527.812 143.691C526.437 146.115 524.719 148.539 523.001 150.962C522.657 151.568 521.627 152.174 520.939 152.477C517.847 153.386 515.098 154.295 512.005 155.204C511.318 155.507 510.63 154.598 510.974 153.689C511.318 152.174 512.005 150.659 512.349 149.145C512.692 147.63 510.974 146.115 508.912 146.418C506.163 146.721 503.414 147.327 502.727 150.054C502.383 151.871 501.696 153.083 499.634 153.083C497.916 153.083 496.198 153.689 494.136 153.689C491.044 153.689 489.326 155.507 487.264 157.325C484.858 159.446 484.858 160.961 487.264 163.687C488.295 164.899 488.295 166.111 487.264 166.717C483.828 168.535 480.391 170.656 476.611 172.17C473.175 173.685 470.082 174.594 467.677 177.624C465.615 180.048 462.179 181.866 461.148 185.198C460.461 187.622 458.743 189.743 455.65 190.349C451.87 191.258 452.901 195.196 450.152 196.711C448.434 197.62 447.747 199.135 447.059 200.65C445.341 203.376 446.716 206.103 447.403 208.83C447.747 210.648 449.121 211.557 450.496 212.466C453.588 214.586 456.681 217.01 460.804 218.222C464.928 219.434 469.395 221.252 472.488 224.281C472.832 224.887 473.175 225.796 473.175 226.402C473.175 227.008 472.488 227.917 471.801 228.22C469.739 229.129 469.739 227.614 469.052 226.705C468.364 225.493 467.677 224.584 465.959 224.584C464.241 224.887 461.835 224.584 460.804 225.493C456.681 228.523 451.526 230.038 446.372 232.159C441.218 234.28 436.063 235.794 430.909 237.006C429.191 237.612 427.473 237.915 425.754 238.521C420.944 240.339 419.226 243.672 421.975 248.216C423.005 250.034 424.38 251.852 425.754 253.367C427.816 255.488 429.534 257.911 430.222 260.638C430.565 262.153 431.253 263.668 432.283 265.183C433.314 266.394 434.689 267.606 436.407 268.212C439.843 269.727 443.623 269.121 447.059 269.424C450.152 271.848 452.901 274.272 455.994 276.695C456.681 277.301 457.712 277.301 458.399 277.604C460.461 278.21 462.523 279.119 464.584 280.028C466.302 280.634 467.677 281.846 468.021 283.361C469.051 288.511 470.77 293.359 474.206 297.903C475.237 299.115 474.206 300.024 472.831 300.933C471.457 301.842 469.739 302.448 468.364 303.357C468.364 303.357 468.364 303.66 468.708 303.66C468.364 303.963 468.364 304.266 468.021 304.569C468.021 304.872 468.021 305.175 467.677 305.478C468.021 304.872 468.021 304.266 468.364 303.357C468.021 302.751 467.677 302.145 467.333 301.539C463.554 297.298 462.523 293.056 465.272 288.208C465.615 287.602 465.615 286.694 465.615 285.785C465.959 283.664 463.21 280.937 460.461 280.937C458.056 280.937 455.994 281.24 453.588 281.846C449.465 282.755 445.341 282.149 442.248 279.422C440.187 277.907 438.125 276.392 435.72 275.181C431.596 273.363 427.473 271.545 423.005 270.636C418.538 269.727 414.415 268.212 409.948 267.303C408.917 267 407.198 267.606 406.168 268.212C404.106 269.727 402.731 271.848 402.731 274.575C402.731 275.181 403.419 276.09 404.106 276.392C405.137 276.998 406.855 276.998 408.229 277.301L407.886 276.998L408.573 276.392L408.229 277.301C408.917 277.907 409.948 278.816 410.978 279.119C412.009 279.725 413.727 279.725 414.758 280.028C416.476 280.634 416.82 282.755 416.133 284.27C415.446 285.482 414.071 286.088 412.697 285.785C410.978 285.482 409.26 284.573 407.542 283.967C406.168 283.361 405.137 282.452 403.762 282.452C402.044 282.149 399.982 283.058 398.952 284.27C398.264 285.179 397.577 286.694 398.264 287.602C400.67 292.147 404.106 295.783 409.948 297.298C413.04 298.206 416.133 298.812 419.226 299.115C420.6 299.115 421.975 299.721 423.005 300.024C423.349 300.024 423.693 300.63 423.693 300.933C424.036 301.842 423.349 302.448 422.318 302.145C420.256 301.236 418.195 300.63 415.789 300.933C411.666 301.539 407.542 301.236 403.419 300.933C401.013 300.63 398.952 300.024 397.921 297.903C397.577 297.298 397.233 296.389 396.546 295.783C393.453 291.541 391.048 287.602 390.704 282.452C390.361 278.513 388.299 274.575 385.55 271.545C384.863 270.636 383.488 270.03 382.457 269.121C382.114 268.818 381.77 269.121 381.427 269.121C381.083 269.424 380.739 269.727 380.739 270.03C381.77 273.06 383.145 276.09 384.176 279.119C384.863 281.543 384.519 283.967 383.145 286.088C382.801 286.694 382.114 287.602 381.77 288.208C379.708 290.329 378.334 292.753 379.365 296.086C380.396 298.812 378.334 301.842 380.396 304.266C382.114 306.387 384.863 308.204 387.268 310.022C388.986 311.537 390.704 312.749 392.422 313.961C395.172 315.779 396.546 318.203 396.546 321.232C396.546 324.565 396.546 327.595 397.233 330.927C398.264 336.987 402.731 341.834 405.137 347.591C405.824 349.106 407.886 349.712 409.948 349.409C413.728 349.106 417.164 348.5 419.569 345.773C422.318 342.44 426.098 343.652 429.534 345.167C429.878 345.47 430.222 345.773 430.565 346.076C430.565 346.379 430.222 346.682 429.534 346.985C425.755 349.409 421.975 351.529 418.538 354.256C415.446 356.68 414.758 361.224 417.507 364.254C418.882 365.769 420.6 366.981 421.975 368.799C424.036 371.222 424.724 373.949 423.693 376.676C421.975 380.615 421.287 384.25 421.287 388.492C421.287 390.31 420.6 392.431 419.569 394.248C416.82 397.884 413.727 401.52 412.697 406.064C412.697 406.67 411.322 407.276 410.291 406.973C404.793 406.367 399.295 405.761 394.141 405.155C393.453 405.155 392.079 404.549 391.735 404.246C391.392 403.337 391.735 402.126 391.735 400.914C390.705 400.914 390.704 400.611 391.392 400.308C391.392 400.611 391.735 400.611 391.735 400.914C391.735 400.914 391.735 400.914 391.735 401.217C392.766 401.823 394.141 402.429 395.172 402.732C399.982 404.246 403.075 403.034 405.137 399.096C408.573 391.824 410.291 384.553 411.666 376.979C412.009 375.767 411.666 374.555 410.978 373.343C409.26 370.314 408.23 367.587 408.917 363.951C409.26 361.83 408.229 360.013 406.168 358.801C404.449 357.589 402.388 356.68 400.67 355.468C397.921 353.65 396.203 351.529 395.172 348.803C391.735 339.714 387.612 330.624 384.519 321.232C382.457 315.476 379.365 310.931 373.867 307.599C371.118 305.781 369.743 303.357 369.743 300.327C369.743 292.147 368.369 284.27 365.963 276.392C365.62 274.878 364.245 273.363 362.527 272.757C355.655 270.636 348.438 268.818 341.222 271.242C339.504 271.848 337.442 270.939 335.724 271.242C334.693 271.545 333.319 272.757 332.975 273.666C332.631 275.484 332.631 277.604 332.631 279.725C332.975 286.088 333.319 292.753 333.662 299.115C333.662 302.448 333.319 305.478 330.57 308.204C327.821 311.234 326.79 314.567 327.133 318.203C327.477 320.929 327.477 323.05 330.226 324.565C332.631 325.777 334.693 327.898 335.38 330.018C336.068 333.351 339.16 336.684 336.755 340.622C336.411 341.228 336.411 342.44 336.755 343.046C338.817 346.379 340.878 349.409 342.94 352.438C343.284 352.741 344.658 352.438 345.346 352.135C347.407 350.923 349.813 350.62 351.531 352.438C354.967 356.074 358.747 359.71 364.245 361.224C364.932 361.527 365.276 362.436 365.62 363.345C365.62 365.466 365.62 367.284 365.276 369.405C365.276 370.617 363.558 371.222 362.183 370.617C359.434 369.102 357.029 367.587 354.28 366.072C352.218 364.86 350.5 363.648 348.438 362.739C345.002 361.527 341.566 360.619 338.129 359.407C335.037 358.498 332.288 357.286 329.539 356.074C325.072 356.68 323.353 353.347 319.917 351.832C313.388 349.409 306.859 347.591 299.987 348.803C298.956 348.803 298.269 349.106 297.238 349.106C289.334 349.106 281.774 348.197 275.589 343.349C272.496 340.925 268.717 339.108 265.624 337.29C264.593 336.684 262.531 337.29 262.188 338.502C261.844 338.805 261.5 339.108 261.5 339.411C260.126 342.743 261.501 345.773 264.593 347.894C268.029 350.317 273.184 350.317 276.276 353.953C276.62 354.559 277.995 354.559 278.682 354.862C280.744 355.165 282.118 356.074 283.149 357.286C285.898 360.013 288.303 363.042 290.709 365.769C291.74 366.981 291.74 369.102 290.365 370.011C287.616 372.131 284.18 373.646 283.493 376.979C283.493 377.282 282.805 377.585 282.462 377.585C281.774 377.282 280.744 376.676 280.4 376.07C279.713 374.555 279.713 373.04 279.025 371.526C277.995 369.708 275.246 368.496 273.527 369.102C270.091 370.314 267.342 372.737 263.562 372.131C263.219 372.131 262.531 372.434 262.531 372.737C261.157 375.767 258.408 376.676 254.628 376.373C251.192 376.07 247.755 376.979 246.037 379.403C243.632 382.129 239.852 382.735 237.103 384.553C236.072 385.159 234.697 384.856 233.323 384.856C233.323 384.25 233.323 383.341 233.323 382.735C234.01 379.403 232.636 376.676 230.23 374.252C227.138 373.949 224.732 374.555 224.045 377.585C223.701 378.191 223.014 379.1 222.327 379.1C219.578 379.1 218.891 381.523 216.829 382.432C214.767 383.341 212.362 383.644 210.3 383.947C207.207 384.553 204.802 386.371 202.396 388.492C197.242 393.642 192.431 398.793 185.559 402.732C183.841 403.64 183.153 404.852 182.81 406.67C182.466 408.791 182.122 410.609 181.779 412.729C181.435 413.335 181.092 414.244 180.404 414.547C176.625 417.88 169.408 418.183 166.659 415.456C164.941 413.638 162.879 412.124 160.818 410.306C159.1 408.791 159.1 406.367 160.818 404.852C162.879 403.337 165.285 402.126 167.69 400.914C169.065 400.005 169.408 397.884 168.034 396.672C166.316 394.854 164.254 393.339 162.536 391.219C159.443 387.583 155.32 386.068 150.509 386.977C146.729 387.583 143.293 387.583 139.856 386.977C139.513 386.977 139.169 387.28 138.825 387.583C138.138 388.189 138.138 389.098 139.169 389.704C145.698 393.945 147.76 400.005 146.385 406.67C146.042 408.185 146.042 410.003 146.042 411.518C146.042 413.033 146.729 414.85 148.447 415.456C151.883 416.971 152.914 419.395 152.914 422.425C152.914 423.939 152.914 425.757 152.571 427.272C152.227 428.787 150.165 430.302 148.791 429.999C146.042 429.393 143.293 429.09 140.887 428.484C137.107 427.575 133.671 427.878 131.266 431.211C129.891 432.726 128.517 434.24 126.455 435.452C123.706 436.967 121.988 439.391 119.926 441.512C115.802 446.359 113.397 448.48 120.27 454.843C120.957 455.449 121.3 456.054 121.644 456.963C122.675 458.478 121.644 459.993 120.957 461.508C119.926 463.023 117.864 463.932 116.146 463.023C109.617 459.993 102.401 458.781 96.5593 454.54C95.5284 453.934 94.1539 453.934 92.7794 453.328C91.7486 453.025 90.0304 453.631 89.3432 454.843C88.6559 456.357 87.9685 457.872 87.2813 459.387C86.594 461.205 86.9376 462.72 88.3121 463.932C91.0611 466.658 94.1538 469.082 98.6209 469.385C99.6518 469.385 100.339 469.688 101.026 470.294C102.401 470.9 102.745 472.112 102.745 473.324C102.745 475.142 100.339 477.262 98.2774 476.959C93.8102 476.353 89.3431 475.748 86.2504 472.112C84.5323 469.991 81.7834 469.688 79.0343 469.082C76.9726 468.779 75.5979 467.567 75.2543 465.749C74.2234 462.114 73.1926 458.781 70.7872 455.751C69.0691 453.631 69.4127 451.207 69.7563 448.783C70.4436 442.724 68.3818 439.694 62.1965 437.573C59.4475 436.664 57.3857 435.755 55.324 433.938C53.2622 431.817 50.1696 430.908 49.1387 428.181H48.7949C48.7949 427.878 48.4514 427.878 48.4514 427.575C47.7641 427.272 47.0769 426.666 46.7333 426.06C46.3896 426.06 46.3896 425.757 46.046 425.757V425.151L46.3897 425.454C46.3897 425.757 46.7333 425.757 46.7333 426.06C47.7641 426.363 48.1078 426.666 48.4514 427.575C48.795 427.575 48.7951 427.878 49.1387 427.878C49.1387 427.878 49.1386 428.181 49.4822 428.181C53.6058 428.181 57.042 429.393 60.8219 430.605C70.4435 433.938 80.7525 436.361 91.0613 437.876C98.9647 439.088 106.524 438.179 113.741 435.149C115.115 434.543 116.146 433.938 117.177 433.332C121.644 429.09 125.08 424.242 125.768 418.486C126.111 416.971 125.768 415.153 124.737 413.941C121.988 410.306 119.926 406.064 114.771 404.246C112.71 403.337 110.992 401.823 109.617 400.611C107.555 398.793 105.494 397.884 102.745 397.581C98.2774 396.975 94.1539 395.157 90.374 392.43C86.9377 390.007 82.8142 387.583 79.0343 385.765C67.6946 380.009 64.6019 379.1 51.8877 379.1C50.1695 379.1 48.1079 379.706 46.3897 379.706C43.9843 379.706 41.9226 379.403 39.5172 379.1C37.4554 378.797 38.1426 377.585 38.8299 376.373C39.5171 375.161 39.1735 373.949 37.799 373.04C36.4245 372.131 34.7063 371.222 32.9882 370.617C32.6445 370.617 32.3009 370.617 32.3009 370.314H29.5519C29.2083 370.617 28.8645 370.617 28.1773 371.223C26.1155 373.04 24.0538 374.252 20.9612 373.343V375.464L19.5866 377.282L17.1814 376.07L15.1195 376.676L15.4632 379.403L13.7451 381.827L10.9959 382.129L8.24693 384.553V386.068L8.93423 387.583H8.24693V386.977V387.583L6.87255 387.886L6.5288 383.644L6.87255 387.886L1.71814 388.795L0 390.31L3.09252 390.613L2.06168 396.672L5.8415 403.337L9.62153 404.549L12.7141 409.397L18.2122 413.033L13.4013 423.636L16.8376 427.272L26.4592 447.571L24.741 447.874L24.3975 455.448L26.4592 457.266L25.4283 457.569L27.1465 463.326L29.5519 463.629L30.5827 465.749L29.8954 470.597L34.3628 474.536L33.3317 478.171L32.3009 483.019L36.4244 489.078L39.5172 490.593L43.9843 496.047L45.0151 498.773L42.6097 504.227L37.1117 513.922L31.9573 522.102L31.27 525.435L27.1465 527.556L21.6485 532.1L22.6793 533.312C22.6793 533.312 21.6484 535.13 20.2739 537.251C20.6175 537.251 20.9611 537.251 21.3047 537.251C21.992 537.251 23.3665 537.554 23.7102 537.857C25.4283 541.492 29.8956 540.583 32.6446 542.401C32.9882 542.704 33.6755 542.704 33.6755 543.007C34.0191 543.31 34.019 543.916 34.019 543.916C32.6445 544.825 30.9264 545.734 29.5519 546.34C27.1465 547.249 24.0538 548.158 22.6793 550.279C22.3357 550.884 21.9921 551.187 21.6485 551.793L23.3666 555.126V556.035L21.3047 556.944L20.2739 558.156L20.6177 558.762V560.883L14.7759 562.397L13.7451 563.609L16.1503 569.669V570.88H16.8376L18.5558 571.486L22.3358 577.849L22.6793 578.758H23.3666V579.97L21.6485 580.878L21.992 582.999L20.9612 585.12L21.3047 584.514L22.6793 585.423V586.938L22.3358 588.15L23.3666 588.756L24.0539 590.574L23.7102 591.786L25.7721 594.815L27.4902 598.148L29.2083 599.663L29.5519 602.692L30.2392 602.995L31.9573 603.904L34.3628 602.692L36.768 606.025L39.5172 604.813L42.2661 605.116L43.9843 608.449L47.0768 606.631L50.5131 605.722L51.5441 607.237L53.2623 607.54L57.7294 608.449L59.1038 611.176L58.0729 613.599L59.7911 616.023L60.1348 618.75L64.6019 624.809L69.4126 629.051L70.4436 631.778L74.2235 633.292L78.6906 636.625V638.443L81.096 639.655L80.0652 642.382C80.0652 642.382 77.6598 644.502 77.3162 644.502C76.9726 644.502 71.818 644.502 71.818 644.502L70.4436 643.291L68.7255 645.714L69.4126 647.835L70.7872 650.562L73.1926 654.804L73.8799 658.136L75.5981 658.439L78.0033 657.53L77.6597 655.41L79.3779 653.895L85.5631 655.712L95.5284 654.198L98.2774 659.651L101.37 661.772L99.9955 663.893L103.775 666.922L108.586 666.013L110.304 668.134L112.366 670.558L116.146 676.617L119.582 680.556L121.988 679.041L126.111 680.253L128.173 679.95H130.578L135.046 677.526L138.482 682.374L142.605 686.01L145.698 685.101L154.632 687.221L159.787 688.736L164.597 687.221L167.003 692.675L164.941 695.705L162.879 696.008L161.848 700.249L164.941 701.764L165.285 704.794L164.597 708.732V711.459L160.474 712.368L157.381 712.671L153.945 716.307L153.258 721.457L151.883 722.972C152.57 722.972 153.601 722.972 154.289 722.972C154.976 722.972 155.663 722.972 156.351 722.972L156.694 722.669L157.381 722.366L157.038 722.972C156.694 722.972 156.694 722.972 156.351 722.972C154.289 724.79 152.227 726.911 149.822 728.728C148.103 729.94 148.447 731.455 149.134 732.97C149.821 734.182 150.165 735.394 149.134 736.303C146.729 739.635 145.011 743.574 140.887 745.695C140.544 745.998 140.2 747.513 140.544 747.816C143.293 751.148 146.042 753.875 150.852 755.087C156.694 756.299 161.505 759.329 165.972 762.964C171.126 767.509 177.655 770.842 184.184 773.568C191.057 776.598 194.149 781.748 194.493 788.111C194.493 788.414 194.493 788.717 194.493 789.323L197.586 791.141L199.648 792.655L204.458 792.958L205.489 792.049L207.895 792.352L212.018 795.079L215.111 796.291H214.767L223.701 794.17L225.42 794.473H231.605L232.292 795.079L232.636 793.261L236.759 792.049L242.945 795.079L247.068 795.382L251.192 797.2L251.879 793.867L249.817 791.141L247.068 789.929L248.099 785.99L251.535 786.596L256.69 790.232L258.064 792.655L263.562 792.958L264.249 791.141L267.342 789.929L271.809 785.384C271.122 784.778 270.091 784.172 269.06 783.566C263.219 779.931 259.439 774.78 258.064 768.721C256.69 763.267 253.941 759.026 249.13 755.693C246.725 753.875 246.381 751.451 247.068 749.028C247.755 746.604 248.786 744.483 249.474 742.059C250.161 740.241 251.879 738.423 253.941 737.818C258.751 736.303 262.875 733.879 265.968 730.243C266.655 729.334 267.686 728.425 269.06 727.82L264.249 723.881L261.5 724.184L258.064 722.972L257.377 720.548L261.844 720.851L253.597 710.853C253.597 710.853 250.504 709.035 248.786 709.035C247.068 709.035 244.319 707.823 244.319 707.823L243.288 709.035L239.508 706.309L237.79 702.067L234.01 700.552L235.728 691.766L234.698 684.495L238.821 679.95V676.617L242.257 675.406L246.725 679.647L248.099 683.586L254.628 683.889L254.971 679.647L252.222 672.073H259.095L259.782 668.437L258.408 666.922L262.875 662.681L264.593 663.287L265.968 659.651H269.06V655.41L276.276 657.833L273.527 661.166L276.964 660.863L281.087 658.136L286.242 655.712L288.991 659.045L291.74 660.257L295.52 658.136L298.956 661.166L304.11 663.59L309.265 666.922L312.014 668.74L313.045 672.073L314.763 667.225L316.481 665.408L319.917 668.134L323.01 669.043L325.072 670.861L327.821 669.043L328.851 665.104L332.631 663.287L335.037 663.893L336.068 662.984L339.16 662.075L341.566 665.71H344.658L345.002 663.287L346.72 662.984L350.5 662.378L354.967 663.59L352.905 665.71L356.342 668.74L362.527 669.043L366.65 670.558L369.743 670.255L370.087 667.225L370.43 666.013H372.836L376.272 666.922L382.457 666.013L381.427 656.621L377.647 655.41L374.898 652.683L369.056 651.471L367.681 648.138L369.4 647.229L370.43 645.108L371.461 643.594L370.774 641.473L369.4 639.655L374.21 633.898L377.99 633.292L381.77 633.898V631.475L377.99 629.051L375.241 629.657L369.056 628.445L369.743 626.627L371.805 626.93L368.369 624.506L367.338 621.174L369.743 620.265L371.805 619.053L374.554 620.265L376.616 619.962L377.99 620.871L379.365 619.356L381.77 617.235L385.206 619.356V617.235L393.797 615.417L396.89 614.508H398.952L402.388 611.782L405.48 611.176L408.917 609.964L410.635 611.176L411.666 607.843L414.758 606.934L416.82 604.813L419.226 606.025L427.816 602.086L433.658 599.966L435.376 598.451L439.5 598.754L438.469 595.724L441.905 594.815L443.623 592.089L449.121 591.482L454.275 591.786L460.117 593.603L463.897 592.089L466.99 596.936L470.77 600.572L470.426 605.722L469.395 606.934L470.77 608.449L473.175 607.843L475.237 608.752L476.611 608.146V606.025L477.986 605.722L478.673 606.934H480.048V605.116L480.735 603.904L483.484 606.631L484.858 610.57L486.577 611.782L488.295 610.873L486.92 609.358L489.326 608.146L493.449 609.661L496.885 609.055L497.916 610.267L496.198 612.69L495.511 615.72L498.603 616.023L502.383 614.205L508.569 615.72L509.943 614.811L509.6 612.994L513.379 611.782L517.503 609.964L519.565 607.237L521.97 604.207L525.75 601.784L531.248 601.481L531.592 603.601L528.499 605.722L548.773 620.265L577.638 651.168L581.761 648.441V646.017L583.823 644.502L586.572 646.32V649.047L589.665 649.653L593.101 650.562L596.537 649.653L599.974 650.865L603.41 649.653L606.503 648.744L605.815 646.623L611.657 645.714L619.217 647.229L622.653 651.168L625.058 654.5L629.182 655.41L632.618 657.833L634.336 661.166L638.46 665.408L642.927 664.196L649.112 662.984L653.923 659.651L654.61 662.984L658.39 666.316L663.545 668.134L662.857 668.74L666.637 669.649L666.294 668.74L669.386 665.104L676.259 664.499L677.633 662.075L681.413 660.257L681.757 657.53L686.568 653.895L691.722 649.047L691.378 646.017L696.189 646.623L698.938 643.896L712.34 641.473L716.463 644.806L725.398 643.896L728.49 647.532L739.143 653.592L747.733 650.865L753.575 651.774L761.822 652.077L768.351 651.774L770.413 648.441L768.008 646.017V638.746L763.197 636.019L760.448 631.172L761.479 626.627L765.258 622.386L769.038 621.78L767.664 619.053L770.413 616.023L777.629 618.447L786.907 622.386L795.841 623.294L805.119 624.203L806.837 630.869L814.054 637.837L824.019 642.382L833.297 640.261L840.856 636.625L852.196 635.716L863.536 637.837L870.752 641.17L874.876 640.867L882.435 647.532L891.37 649.047L908.208 649.35L915.767 646.017L923.327 642.988L928.481 642.382L931.574 638.746L936.041 635.413L939.478 631.778L944.632 630.566L950.817 631.475L955.972 633.898L962.844 631.475H967.655L970.061 633.596H973.84H976.589L981.4 635.413L988.96 629.96L993.771 628.445L996.176 625.718L996.52 622.688L992.396 622.386L992.053 619.356L991.365 615.114L993.084 611.176L992.396 606.631L991.022 603.298L993.427 599.663L994.458 596.936L997.207 594.209L996.863 590.574L994.458 586.332C994.458 586.332 992.396 582.999 992.053 582.696C991.709 582.091 988.96 584.211 988.96 584.211L986.898 584.514L985.18 583.302L987.585 578.152L990.334 573.91L997.894 573.001L1001.33 570.88L1006.14 569.669L1010.95 568.76L1013.7 566.639L1018.51 566.336L1024.01 567.851L1027.79 569.972L1029.85 569.669L1034.32 570.88L1035.35 569.669C1035.35 569.669 1040.5 569.972 1041.19 569.972C1041.88 569.972 1043.6 572.092 1043.6 572.092L1047.72 574.516L1051.16 577.243L1053.91 579.667L1055.62 584.514L1059.06 584.817L1058.37 587.847L1064.56 594.209L1066.96 599.057H1068.34L1071.43 604.207L1076.24 607.237L1078.65 612.994L1081.05 614.811L1081.4 618.447L1085.52 622.386L1092.39 623.598L1097.2 623.294L1102.36 626.93L1107.51 625.415L1110.95 628.142L1119.19 633.596H1126.07L1125.04 636.322L1128.13 639.352L1127.1 644.806L1133.97 650.865L1138.44 649.956L1140.5 651.774L1147.37 650.562L1150.46 647.229L1154.24 642.382L1158.37 640.261L1163.87 636.019L1168.33 637.231L1170.4 641.17L1173.49 645.714L1174.86 649.653L1171.77 652.986L1172.11 657.833L1172.8 663.893L1174.52 670.255L1173.14 676.617L1171.08 685.101L1167.65 688.736L1167.3 698.734L1165.58 699.643L1161.8 696.614L1159.06 691.16L1151.15 694.19L1157.34 706.006L1157.68 713.883L1160.09 715.398L1159.74 720.851V724.184L1154.24 723.881L1153.9 728.123V727.82L1154.59 728.728L1156.99 731.455L1157.34 731.758C1158.37 731.152 1159.06 730.243 1160.09 729.637C1161.46 728.426 1162.49 727.214 1163.87 726.002C1165.58 724.184 1165.58 721.154 1168.33 720.245C1172.11 719.033 1173.83 722.366 1176.58 723.578C1179.67 724.79 1182.77 725.093 1185.86 723.881C1188.95 722.669 1191.36 721.154 1193.42 718.73C1196.85 714.792 1199.6 710.55 1201.67 706.309C1204.76 699.037 1209.57 692.675 1210.94 684.798C1211.29 683.283 1211.97 681.465 1213.01 680.253C1218.85 673.891 1219.19 666.316 1219.88 658.742C1220.57 652.38 1223.66 646.32 1223.31 639.655C1223.31 638.443 1223.66 637.231 1224.34 636.322C1227.44 632.384 1226.41 627.839 1226.06 623.598C1225.03 615.417 1222.63 607.843 1217.82 600.875C1215.75 597.845 1214.72 595.118 1214.72 591.786C1214.38 584.817 1214.38 578.152 1214.04 571.183C1214.04 570.578 1214.72 569.972 1215.07 569.366C1215.41 569.669 1216.1 569.669 1216.1 569.972C1218.85 573.607 1222.28 576.94 1225.72 580.273C1229.16 583.605 1228.47 588.756 1230.87 592.694C1231.9 594.512 1232.94 596.33 1233.97 598.148C1236.37 602.389 1238.43 606.934 1238.43 612.084C1238.43 612.993 1238.43 613.599 1238.78 614.508C1240.5 619.962 1240.84 625.415 1245.31 630.263C1247.37 632.384 1248.06 635.413 1248.4 638.14C1248.74 642.382 1250.12 646.017 1252.18 649.653C1253.9 652.38 1254.24 654.804 1254.24 657.833C1254.24 659.045 1254.24 660.257 1254.58 661.469C1255.27 664.196 1256.99 666.619 1260.08 667.831C1260.77 668.134 1262.14 667.528 1262.14 667.225C1262.49 665.71 1262.14 664.196 1262.14 662.378C1262.14 659.651 1263.52 659.045 1266.61 659.348C1269.7 659.651 1271.42 661.772 1273.83 662.681C1274.17 662.681 1274.86 662.984 1275.2 662.681C1275.55 662.075 1276.23 661.166 1276.23 660.56C1275.89 657.833 1274.51 654.803 1271.77 653.592C1265.92 651.168 1264.55 645.108 1259.74 642.382C1258.36 639.352 1256.65 636.625 1255.96 633.292C1254.93 629.354 1254.58 625.415 1253.9 621.477C1253.55 620.265 1253.9 619.053 1253.55 617.841C1253.55 616.326 1254.93 614.508 1256.65 614.508C1258.71 614.205 1261.11 614.205 1263.17 613.902C1263.86 611.782 1262.83 609.964 1261.8 608.449C1253.55 596.027 1245.99 582.999 1235.68 571.486C1232.25 567.851 1230.19 564.215 1230.19 559.368C1230.19 557.55 1229.84 555.126 1228.81 553.611C1225.38 548.158 1223.66 541.492 1217.13 537.554C1214.72 536.039 1214.38 533.312 1213.35 531.191C1211.97 529.07 1209.57 527.859 1206.82 527.556C1206.13 527.556 1205.45 528.162 1204.76 528.768C1204.41 529.07 1204.41 529.676 1204.41 529.979C1204.76 530.585 1205.1 531.494 1205.79 532.1C1210.26 536.948 1210.26 536.948 1206.13 543.007C1205.79 543.613 1205.45 544.522 1205.45 545.128C1205.79 546.643 1206.48 548.158 1207.51 549.672C1210.26 553.611 1211.29 557.853 1212.32 562.094C1212.32 562.7 1211.97 563.609 1211.29 564.215C1210.6 565.124 1208.88 563.912 1208.54 562.397C1207.85 559.974 1207.51 557.55 1205.45 555.732C1204.07 554.52 1203.04 553.005 1203.38 551.49C1203.73 547.855 1201.67 545.431 1198.23 543.613C1192.73 540.583 1186.89 538.16 1182.08 534.524C1181.05 533.918 1179.33 533.615 1178.3 533.615C1175.89 533.615 1173.83 534.221 1171.43 534.221C1169.02 534.221 1167.3 535.13 1166.62 537.554C1165.93 540.28 1164.9 543.007 1162.49 544.825C1162.15 545.128 1161.46 544.825 1161.12 544.522C1159.4 541.189 1157.68 538.16 1155.62 534.827C1155.28 534.524 1154.93 533.918 1154.59 533.918C1153.9 534.221 1153.21 534.827 1152.53 535.13C1151.15 536.342 1151.5 537.857 1151.84 539.674C1151.84 540.28 1151.5 541.189 1150.81 541.492C1150.12 542.098 1149.09 541.492 1148.75 540.886C1147.37 537.857 1146.34 534.827 1144.97 531.797C1143.59 529.07 1142.22 528.464 1138.44 529.373C1137.06 529.676 1136.03 530.282 1134.66 530.585C1133.28 530.888 1131.91 530.585 1130.53 530.585C1128.13 530.282 1126.07 528.161 1127.1 526.344C1127.44 525.132 1128.13 523.92 1128.47 523.011C1130.53 519.375 1132.94 516.043 1135 512.407C1137.41 508.468 1140.16 504.53 1140.5 499.985C1141.53 491.805 1144.28 484.231 1148.4 476.959C1151.15 471.809 1153.56 466.658 1152.18 460.599C1151.5 458.175 1152.53 455.751 1153.9 453.631C1156.31 450.298 1157.34 447.268 1155.62 443.33C1154.93 441.815 1155.62 439.997 1156.65 438.785C1159.06 435.755 1161.46 433.635 1166.27 432.726C1171.43 431.817 1176.58 429.393 1181.73 427.878C1183.8 427.272 1186.2 427.272 1188.26 428.484C1190.67 429.696 1192.73 429.393 1194.11 427.272C1195.82 424.242 1198.92 423.031 1202.01 423.636C1207.16 424.545 1211.63 421.819 1216.79 421.819C1217.47 421.819 1218.5 420.91 1218.5 420.304C1219.19 418.486 1219.53 416.365 1220.22 414.547C1220.91 412.73 1223.31 411.215 1225.38 411.215C1231.56 411.821 1238.09 412.427 1244.28 413.033C1245.65 413.033 1246.68 413.941 1247.71 414.547C1248.4 414.85 1248.4 415.759 1248.4 416.365C1248.4 416.971 1247.37 417.577 1247.02 418.486C1245.99 420.304 1246.34 421.516 1248.06 422.728C1249.43 423.939 1251.49 424.848 1252.87 423.939C1257.33 421.516 1262.83 420.001 1265.92 415.759C1266.95 414.244 1268.67 413.941 1270.73 414.547C1272.8 415.153 1274.51 414.547 1275.55 413.335C1277.26 411.518 1280.7 410.609 1280.01 407.882C1279.33 404.852 1276.23 404.852 1273.48 404.549C1273.14 404.549 1272.45 404.549 1272.11 404.246C1270.73 403.943 1269.7 403.337 1269.02 402.126C1267.3 397.884 1266.61 393.642 1268.67 389.098C1269.02 388.189 1269.02 387.583 1269.7 386.674C1271.42 383.341 1271.77 379.706 1271.77 376.07C1271.42 371.223 1272.11 366.375 1271.42 361.527C1271.08 358.195 1273.14 355.165 1276.92 353.953C1280.01 352.741 1283.11 352.135 1285.85 350.923C1288.95 349.409 1291.7 349.106 1295.13 350.015C1297.19 350.62 1298.57 349.409 1299.94 348.5C1301.32 347.591 1303.04 348.197 1303.04 349.409C1303.38 352.135 1304.07 354.862 1304.07 357.892C1304.41 360.619 1305.78 362.436 1308.19 363.648C1310.94 365.163 1313.69 365.769 1316.44 367.587C1316.78 367.89 1318.16 367.284 1318.84 366.981C1319.87 366.072 1320.56 365.163 1320.9 363.951C1321.94 359.104 1323.31 354.559 1323.65 349.712C1324 346.379 1325.71 344.864 1329.15 343.652C1331.21 343.046 1330.87 341.228 1331.21 339.714C1330.87 339.714 1330.53 339.411 1330.53 339.411C1324.34 335.169 1322.28 329.109 1321.25 322.444C1321.25 322.141 1321.59 321.838 1321.59 321.232C1323.31 318.506 1327.78 317.294 1331.21 318.808C1332.24 319.111 1333.27 320.929 1332.59 321.838C1330.18 325.474 1330.87 328.807 1332.93 332.139C1335.68 336.381 1338.77 340.319 1338.43 345.47C1338.43 346.076 1339.12 346.985 1339.8 347.591C1342.9 350.923 1341.18 355.468 1342.9 359.104C1342.21 362.133 1339.46 363.648 1337.74 366.072C1337.4 366.375 1337.05 366.678 1336.71 366.981C1334.99 368.799 1334.31 370.919 1334.31 373.646C1334.65 380.009 1334.99 386.371 1331.9 392.733C1331.21 394.248 1331.21 395.763 1331.21 397.581C1331.21 403.64 1330.53 409.7 1330.87 415.759C1331.21 420.91 1330.53 425.454 1326.4 429.09C1325.37 429.999 1325.37 431.211 1324.34 432.12C1323.65 433.029 1322.62 433.938 1321.59 434.543C1317.81 437.27 1317.47 437.27 1319.87 439.694C1322.62 442.724 1322.97 446.359 1322.28 449.995C1321.93 451.813 1320.9 453.934 1320.22 455.751C1319.19 458.478 1318.84 461.205 1319.53 463.932C1320.22 468.779 1322.62 473.021 1324.34 477.868C1329.15 493.32 1339.46 506.348 1349.08 519.375C1351.83 523.011 1354.92 526.647 1357.33 530.585C1359.05 533.009 1360.42 535.736 1362.83 537.554C1366.26 539.977 1367.98 543.007 1369.7 546.34C1371.42 549.672 1372.79 553.005 1374.51 556.338C1376.23 559.974 1380.01 561.488 1383.44 563.306C1383.79 563.306 1384.48 563.306 1384.82 563.003C1387.57 561.185 1387.57 558.156 1389.29 555.732C1393.07 549.37 1393.07 543.007 1390.32 536.039C1387.22 528.768 1386.19 526.647 1395.81 522.405C1396.16 522.102 1396.5 522.102 1396.85 521.799C1398.22 520.89 1398.56 519.981 1397.53 518.769C1396.16 516.952 1394.78 515.437 1393.75 513.619C1393.07 512.104 1392.04 510.589 1392.04 509.074C1392.04 505.439 1392.03 501.803 1392.72 498.167C1393.07 495.744 1394.78 493.926 1397.88 492.714C1399.94 492.108 1402 491.199 1404.06 489.987C1405.78 489.078 1406.47 486.049 1405.09 484.534C1403.03 482.413 1400.97 479.989 1398.91 478.171C1393.07 472.718 1391.35 466.355 1392.72 459.084C1393.07 457.872 1394.1 456.963 1395.47 456.963C1396.5 456.963 1397.19 457.266 1398.22 457.569C1400.97 457.569 1403.37 454.54 1402.34 452.722C1400.63 449.995 1398.22 447.268 1396.85 444.541C1395.47 441.815 1393.41 440.906 1390.32 441.512C1389.63 441.512 1388.26 440.906 1388.26 440.603C1386.54 437.27 1384.48 434.241 1386.19 430.302C1386.88 429.393 1386.54 427.878 1386.54 426.666C1386.19 425.454 1385.85 424.242 1384.82 423.333C1383.1 421.516 1380.35 420.607 1377.6 420.304C1376.92 420.304 1375.88 420.91 1375.2 421.213C1374.51 422.122 1373.82 423.031 1373.14 423.939C1373.14 424.242 1373.14 424.242 1373.48 424.242C1373.82 424.242 1374.17 424.242 1374.17 424.242C1374.17 424.848 1373.82 424.545 1373.48 424.242C1373.14 424.242 1373.14 424.242 1372.79 424.242C1372.79 424.242 1372.79 423.939 1373.14 423.939C1370.73 422.728 1369.01 421.213 1367.98 418.789C1365.92 414.547 1365.58 410.306 1365.58 405.761C1365.92 398.793 1365.58 392.128 1361.11 386.068C1360.77 385.462 1360.42 384.553 1360.42 383.644C1359.05 379.403 1361.45 375.767 1366.61 374.555C1367.29 374.252 1368.32 374.858 1369.36 374.555C1372.1 374.252 1372.79 373.949 1373.14 371.828C1373.48 369.708 1373.82 367.89 1375.54 366.375C1376.57 365.466 1378.29 365.163 1378.98 366.375C1380.01 368.193 1381.04 370.011 1382.41 371.526C1382.76 372.131 1384.13 372.131 1384.82 372.131C1385.51 371.828 1386.54 371.222 1386.88 370.617C1387.57 368.799 1387.91 366.678 1388.26 364.86C1388.94 361.83 1390.66 359.71 1392.72 357.589C1395.47 354.559 1399.59 353.65 1403.72 353.044C1406.47 352.438 1408.87 354.256 1411.28 355.771C1413.68 357.286 1415.75 358.498 1417.81 360.013C1418.49 360.618 1419.18 360.921 1420.21 361.224C1421.59 361.527 1422.96 361.83 1424.34 361.83C1425.71 361.83 1427.08 360.618 1427.08 359.71C1427.08 356.983 1424.68 354.559 1425.37 351.529C1426.05 348.803 1426.74 346.076 1427.43 343.349C1428.8 339.41 1429.49 335.472 1429.83 331.533C1430.52 325.474 1432.24 319.717 1436.02 314.567C1438.08 311.537 1439.8 308.205 1441.52 304.872C1443.92 299.721 1447.7 295.177 1452.51 291.238C1454.23 289.723 1456.29 289.117 1458.7 289.117C1461.79 289.117 1465.23 289.42 1468.32 289.42C1469.69 289.42 1471.07 289.42 1472.44 288.814C1473.13 288.511 1474.16 287.905 1474.16 287.299C1474.51 282.149 1474.85 276.696 1469.01 273.06C1467.63 272.151 1466.95 270.333 1465.92 269.121C1465.23 268.212 1464.54 266.697 1463.17 266.394C1458.01 264.88 1454.23 260.941 1448.73 260.032C1448.73 260.032 1448.73 260.032 1448.73 260.335L1447.7 260.638L1448.39 260.032C1448.39 260.032 1448.39 260.032 1448.73 260.032C1448.39 258.517 1447.7 257.002 1447.36 255.487C1446.33 252.458 1444.27 250.337 1440.49 250.943C1439.46 250.943 1438.77 250.943 1438.08 250.034C1437.74 249.428 1437.39 248.519 1437.05 247.913C1434.99 244.581 1433.61 243.369 1429.83 244.278C1425.37 244.884 1422.96 243.066 1420.56 240.642C1419.53 239.733 1420.21 237.915 1421.24 237.612C1422.96 237.006 1424.68 236.703 1426.4 236.4C1431.55 235.188 1433.96 231.856 1434.3 227.614C1434.65 222.767 1434.65 217.919 1434.65 213.072C1434.65 211.557 1433.96 210.042 1433.27 208.527C1432.24 206.709 1430.86 205.194 1430.18 203.074C1428.8 200.044 1426.74 198.529 1423.31 197.923C1419.87 197.317 1417.46 195.802 1415.75 193.378C1415.06 192.469 1414.37 191.258 1415.06 190.046C1415.75 188.834 1416.09 187.925 1416.78 186.713C1417.81 184.895 1419.87 184.592 1420.56 186.107C1421.59 188.834 1423.65 190.955 1426.74 192.167C1434.99 195.802 1435.68 195.802 1439.8 187.925C1440.14 187.319 1440.49 186.41 1440.83 185.804C1442.55 183.683 1444.95 182.471 1447.7 181.866C1449.76 181.563 1451.14 182.774 1452.51 183.986C1454.23 185.198 1455.61 186.713 1457.32 188.228C1459.73 190.652 1463.17 191.258 1465.92 189.743C1468.66 187.925 1471.76 187.622 1474.85 187.622C1477.25 187.622 1479.32 187.925 1481.72 187.925C1483.44 187.925 1485.16 187.319 1487.22 187.016C1487.91 186.713 1488.94 186.41 1489.63 185.804C1490.31 185.198 1491 184.289 1491 183.683C1490.31 175.2 1490.66 170.959 1484.47 170.353ZM649.112 124.604C649.456 124.907 649.456 124.907 649.8 125.21C649.456 125.21 649.112 124.907 648.769 124.907L648.425 124.301L649.112 124.604ZM42.2661 445.147C42.2661 445.147 41.9224 445.147 41.9224 444.844L41.5788 444.239L42.2661 444.541C41.9225 444.844 41.9225 444.844 42.2661 445.147C42.6098 445.147 42.6098 445.147 42.9534 445.45C42.6098 445.753 42.2661 445.753 42.2661 445.147ZM17.8685 564.215C17.5248 564.518 17.1813 564.821 16.8376 564.821C15.8067 565.124 15.1196 564.821 14.7759 563.912C14.4323 562.7 14.0887 561.488 15.4632 560.579C15.8069 560.276 16.1505 560.579 16.4941 560.579C18.2122 560.882 18.8993 562.7 17.8685 564.215ZM22.3358 573.304L21.6485 572.395L22.3358 573.304L23.0229 573.91L22.3358 573.304ZM44.3278 410.306C44.6715 410.003 45.0152 409.397 45.7024 409.094C45.0152 409.397 44.6715 410.003 44.3278 410.306C44.6715 411.518 44.3278 411.518 43.6405 410.912C43.6405 410.912 43.9842 410.609 44.3278 410.306ZM56.3548 536.645C56.0112 536.948 55.6676 537.251 55.324 537.251C53.2622 538.16 51.8876 538.16 50.5131 536.948C46.0459 532.706 43.297 527.859 39.8607 523.011C39.5171 522.405 39.1734 521.496 39.1734 520.89C39.8607 518.164 41.2352 515.74 44.3278 514.225C44.6715 513.922 45.3588 513.922 45.7024 513.922C46.3897 514.225 47.4206 514.528 48.1079 514.831C50.8569 516.649 53.9495 518.769 56.6985 520.89C57.3858 521.496 58.073 521.799 58.7602 522.405C64.9455 527.556 63.9146 533.009 56.3548 536.645ZM75.2543 481.504C74.5671 481.201 73.8798 480.595 73.5362 480.292C73.1925 479.686 73.5362 479.08 73.5362 478.474C74.2234 478.777 74.9108 478.777 75.5981 479.383C75.9417 479.989 76.2851 480.595 76.2851 481.201C76.2851 480.898 75.5979 481.201 75.2543 481.504ZM94.1538 522.102C93.8102 522.708 92.7794 523.314 92.0921 523.314C91.0613 523.617 90.374 523.011 90.374 522.102C90.0304 518.466 87.9686 516.043 84.5323 514.528C81.4396 513.316 79.7215 511.195 78.6906 508.165C78.0033 506.348 78.6907 505.136 80.7525 504.833C82.4706 504.53 84.1886 504.227 85.5631 503.015C86.2504 502.409 86.9378 501.803 87.625 501.5C87.625 501.803 87.9686 502.409 87.9686 502.712C88.9995 506.954 91.7486 510.892 94.4976 514.528C95.5285 515.74 95.5285 517.558 96.2157 519.072C95.1848 519.981 94.8411 520.89 94.1538 522.102ZM113.053 535.736C112.71 535.736 112.022 535.433 112.022 535.13C112.022 534.827 112.022 534.524 112.366 534.221C112.71 534.221 113.397 534.221 113.397 534.221C114.084 534.827 114.084 535.433 113.053 535.736ZM127.486 565.124C125.08 566.033 123.019 565.124 121.644 563.609C120.613 562.7 120.269 561.791 120.957 560.579C121.3 560.276 121.3 559.974 121.3 559.368C121.644 558.459 121.644 557.247 121.988 556.338C121.988 556.338 121.988 556.338 121.644 556.035C121.3 556.035 121.3 555.732 120.957 555.732C120.269 555.732 119.926 555.732 119.582 555.429C118.895 554.823 119.582 554.823 120.613 555.429C120.613 555.429 120.957 555.429 120.957 555.732C121.3 555.732 121.644 555.732 121.988 555.732C121.988 556.035 121.988 556.035 121.988 556.338C124.05 558.156 126.111 560.276 128.173 562.094C129.204 563.003 128.86 564.821 127.486 565.124ZM244.319 602.692L244.663 601.784L245.006 602.086L244.319 602.692ZM366.307 330.018L365.62 329.715L366.65 329.412L366.307 330.018ZM447.403 361.224C447.059 361.527 446.716 361.527 446.372 361.527C443.623 356.983 439.156 353.347 435.72 349.409C435.376 349.106 435.376 348.5 435.72 348.197C436.407 347.894 437.438 347.288 437.781 347.288C439.5 347.591 441.218 348.197 442.592 349.106C444.654 350.62 446.372 352.741 448.09 354.559C449.465 355.771 449.121 359.104 447.403 361.224ZM451.183 370.92C450.839 370.617 450.152 370.617 450.152 370.314C450.152 369.405 450.496 369.405 451.526 370.314C451.526 370.617 451.527 370.617 451.183 370.92ZM478.329 311.537C477.298 312.749 475.924 313.052 475.58 312.143C475.58 311.84 475.237 311.537 475.58 311.234C476.268 310.022 477.298 309.113 478.329 309.719C478.673 309.719 478.673 310.325 479.017 310.628C478.673 310.931 478.673 311.234 478.329 311.537ZM535.028 592.089C534.341 592.089 533.31 592.089 532.623 592.089C532.279 592.089 532.279 591.785 531.935 591.482C533.31 591.18 534.341 590.877 535.715 590.574C535.715 590.574 536.059 591.18 536.059 591.482C535.715 591.482 535.372 592.089 535.028 592.089ZM539.151 146.418C538.121 145.812 537.09 144.903 536.059 144.297C535.715 143.994 535.715 143.691 535.372 143.691C535.715 143.691 536.059 143.994 536.403 143.994C537.433 144.903 538.121 145.509 539.151 146.418L539.495 146.721L539.151 146.418ZM555.646 104.608V104.002L556.333 104.305L555.646 104.608ZM585.885 173.685C585.541 173.685 585.885 173.685 585.885 173.685C584.854 176.109 584.51 178.533 583.823 181.26C583.479 182.774 582.105 182.774 581.074 183.077C577.981 183.38 577.638 185.804 577.294 187.622C577.294 187.622 577.638 187.622 577.638 187.925C578.669 188.834 579.356 189.44 580.387 190.349C581.418 190.955 582.449 191.864 583.48 192.47L583.823 193.075L583.48 192.773C582.449 192.167 581.418 191.258 580.387 190.652C579.356 189.743 578.669 189.137 577.638 188.228C577.638 187.925 577.638 187.925 577.638 187.622C575.232 186.107 571.796 185.804 570.422 183.38C569.391 181.26 568.704 179.139 568.016 176.715C567.673 175.806 567.673 174.594 567.329 173.685C567.329 173.685 566.985 173.685 566.985 173.382L566.298 173.079L567.329 173.382V173.685C568.703 174.594 570.078 175.503 571.453 175.806C574.202 177.018 577.294 177.321 580.043 175.503C581.761 174.291 583.48 173.382 585.885 173.685C585.541 173.382 585.541 173.382 585.885 173.685C585.885 173.382 586.229 173.079 586.229 173.079C586.229 173.079 585.885 173.382 585.885 173.685ZM602.379 164.293C598.943 166.111 595.506 167.626 592.414 170.05C591.727 170.656 590.352 170.353 588.977 170.656C588.977 170.656 588.978 170.959 588.634 170.959C588.29 170.959 588.29 171.262 587.947 171.262C587.947 170.959 588.29 170.959 588.29 170.656C588.29 170.656 588.634 170.656 588.977 170.656C589.665 169.444 590.696 168.232 591.383 167.02C593.101 164.899 595.163 163.081 596.881 161.263L596.537 160.961C593.445 160.961 591.039 160.355 590.008 157.325C590.008 156.719 590.696 156.113 591.039 155.507C591.039 155.507 592.07 155.507 592.07 155.81C592.758 156.113 593.445 156.719 593.788 157.325C594.819 158.537 595.507 159.749 596.194 160.961C596.537 160.961 596.537 160.961 596.881 160.961L596.537 161.263C597.912 161.566 599.286 161.566 600.317 162.172C601.004 162.475 601.692 163.081 602.035 163.384C602.723 163.384 602.379 164.293 602.379 164.293ZM621.622 162.778L620.591 162.475L621.622 162.172V162.778ZM641.209 210.042L640.865 209.739L640.522 209.133H641.209C641.209 209.739 641.209 209.739 641.209 210.042C641.553 210.042 641.553 210.345 641.896 210.345C641.553 210.648 641.209 210.345 641.209 210.042ZM780.378 554.823C780.034 555.126 779.347 555.126 779.347 554.823C776.942 553.005 774.193 551.49 773.506 548.461C773.506 548.158 773.506 547.552 773.506 547.249C773.849 546.037 774.536 545.734 775.224 546.946C775.911 547.855 776.598 549.067 776.942 549.976C778.316 551.187 779.347 552.399 780.378 553.914C781.065 554.217 780.722 554.823 780.378 554.823ZM780.378 543.31C779.691 542.704 780.034 542.401 781.065 542.401C781.065 542.401 781.409 542.704 781.409 543.007C781.065 543.007 780.722 543.31 780.378 543.31ZM863.192 576.94C861.818 578.152 861.13 579.667 862.161 581.484C862.849 582.999 863.536 583.908 862.505 585.726C859.069 592.089 853.914 597.239 848.073 601.481C845.324 603.298 843.606 605.419 843.606 608.449C843.262 611.176 841.544 612.69 839.138 614.205C836.389 615.72 833.64 616.932 830.204 616.629C829.517 616.629 828.486 616.326 827.799 615.72C827.799 615.72 827.799 615.114 828.142 614.508C829.173 612.691 830.204 611.176 831.235 609.358C831.235 609.358 830.891 609.358 830.891 609.055C829.86 609.358 829.86 609.358 830.548 608.449C830.891 608.752 830.891 608.752 831.235 609.055C832.609 610.267 833.984 610.873 835.702 609.964C836.733 609.358 838.108 608.449 838.451 607.54C839.826 603.601 841.887 600.269 844.293 596.633C845.324 595.421 845.667 593.603 846.355 592.089C847.385 589.362 848.416 586.635 849.791 584.211C855.633 573.001 857.351 561.185 855.289 549.067C855.289 548.461 855.633 547.552 855.633 546.643C855.633 546.34 856.32 545.734 856.32 545.734C857.007 545.734 858.381 546.037 858.725 546.643C860.787 551.187 861.818 555.732 862.505 560.579C862.849 563.306 862.849 566.336 864.567 568.76C866.629 572.395 865.598 574.819 863.192 576.94ZM939.821 179.442C937.76 180.351 935.354 179.442 934.323 177.624C933.98 177.018 934.323 176.109 935.354 176.109C937.072 176.109 938.79 176.412 940.508 176.715C940.852 176.715 940.852 177.321 941.196 177.624C940.508 178.23 940.509 179.139 939.821 179.442ZM982.775 134.602C981.744 135.511 981.056 136.42 980.026 137.026C979.682 137.329 979.338 137.329 978.995 137.329C977.964 137.329 977.277 137.026 977.277 136.117C976.933 133.996 977.964 132.784 981.4 132.784C982.087 132.784 983.118 133.087 983.806 133.39C983.118 133.996 983.118 134.299 982.775 134.602ZM995.833 143.994C995.489 145.509 994.458 146.721 993.771 148.236C993.771 148.539 993.084 148.539 992.396 148.236C992.053 148.236 991.709 147.63 991.709 147.327C992.053 144.903 992.396 142.479 992.74 139.753H992.396L992.053 138.844L992.74 139.45V139.753C995.145 140.358 996.176 141.873 995.833 143.994ZM1053.91 541.189C1053.56 541.189 1053.56 541.492 1053.22 541.492L1052.53 541.795L1052.87 541.189C1053.22 541.189 1053.56 541.189 1053.91 541.189C1054.25 540.886 1054.59 540.583 1054.94 540.28C1054.94 540.583 1054.94 540.583 1055.28 540.886C1054.94 541.189 1054.25 541.189 1053.91 541.189ZM1178.64 162.778C1178.3 162.475 1177.61 161.869 1177.27 161.263C1176.92 161.263 1176.92 161.263 1176.58 161.263C1176.24 160.96 1176.24 160.961 1175.89 160.658C1176.24 160.658 1176.58 160.961 1176.92 160.961C1176.92 160.961 1176.92 161.263 1177.27 161.263C1178.3 161.263 1179.33 160.961 1179.67 162.475C1179.67 162.475 1178.64 163.081 1178.64 162.778ZM1414.03 232.765C1412.65 233.371 1411.28 234.28 1409.9 235.188C1408.87 235.491 1407.5 234.885 1406.81 233.674C1406.47 232.765 1406.81 232.159 1407.84 232.159C1409.56 231.856 1411.28 231.553 1413 231.25C1413.34 231.25 1413.68 231.553 1414.03 231.856C1414.37 231.856 1414.03 232.159 1414.03 232.765ZM18.8995 370.617C16.1505 369.708 13.7449 370.011 10.9959 370.314C13.7449 370.011 16.1505 369.708 18.8995 370.617ZM1264.89 609.661V609.358C1264.89 609.358 1264.89 609.358 1264.55 609.358C1264.55 609.661 1264.55 609.661 1264.89 609.661C1264.89 609.661 1264.55 609.661 1264.89 609.661ZM29.2083 367.587C29.552 367.587 29.8955 367.89 30.5827 367.89H30.9265C30.2392 367.587 29.552 367.587 29.2083 367.587ZM228.856 371.828C228.512 371.828 228.512 371.828 228.169 371.828L228.512 372.131L228.856 371.828ZM231.261 370.314C230.918 370.314 230.23 370.314 230.23 370.314C229.887 370.617 229.543 371.223 229.199 371.526C229.887 371.526 230.574 371.526 230.918 371.526C231.948 371.526 231.949 371.222 231.261 370.314ZM684.506 173.079C684.506 173.382 684.506 173.382 684.506 173.382C684.506 173.382 684.506 173.382 684.85 173.382V173.079C684.85 173.079 684.85 173.079 684.506 173.079ZM1270.73 614.811C1270.39 614.508 1270.39 614.508 1270.05 614.205C1269.7 614.205 1269.7 613.902 1269.7 613.902C1269.7 614.205 1270.05 614.205 1270.05 614.508C1270.05 614.508 1270.39 614.811 1270.73 614.811ZM683.819 173.079C683.819 173.079 684.162 173.079 684.506 173.382C684.162 172.473 684.162 172.473 683.819 173.079ZM1269.7 613.902C1269.36 612.994 1269.02 612.387 1267.99 612.084C1267.99 613.296 1268.67 613.902 1269.7 613.902ZM1267.99 612.084C1267.99 611.782 1267.64 611.782 1267.99 611.782H1267.64V612.084C1267.64 612.084 1267.64 612.084 1267.99 612.084ZM79.7214 92.792C75.5979 92.792 74.9106 95.2158 74.567 98.2455C78.0033 98.8514 78.3469 98.8514 78.0033 101.578C77.6597 102.79 77.3162 104.002 77.3162 105.214C77.3162 108.243 79.3778 110.061 83.1577 110.97C84.5322 111.273 85.9068 111.576 87.2813 111.879C89.343 112.182 90.7175 111.273 91.7484 110.061C93.1229 108.546 94.1539 106.729 94.4976 104.608C94.4976 103.093 94.8411 101.275 96.5593 100.366C99.9955 98.2455 100.339 94.0038 103.775 91.883C105.493 90.6712 105.494 87.9445 104.119 86.4296C102.057 84.3088 100.339 81.885 98.2774 79.7642C97.9338 79.4612 96.5592 79.1582 95.872 79.4612C91.7484 80.3701 90.7176 81.2791 90.374 85.2177C90.374 88.5504 88.6558 90.3682 85.5631 91.883L85.9069 91.5801H85.5631C83.845 92.186 82.1268 92.792 79.7214 92.792ZM1267.3 611.782C1266.95 610.57 1266.27 609.964 1264.89 609.964C1265.24 610.873 1265.92 611.479 1267.3 611.782ZM60.8219 99.4573C64.2582 100.063 68.0382 100.972 71.4745 101.275C74.2235 101.578 73.8798 99.4574 74.2235 98.2455C73.8798 97.6395 73.1925 97.3365 72.8489 96.7306C71.4744 94.6098 71.4745 92.4891 73.1926 91.2772C74.9108 90.0653 76.9725 89.1563 79.3779 90.3682C81.4396 91.2771 83.5014 91.5801 85.5631 90.9742C85.5631 90.3682 85.5631 89.4593 84.8758 88.8533C82.1268 86.1266 78.347 84.6117 74.2235 84.0058C72.5053 83.7028 70.4436 84.0058 69.0691 84.6118C64.6019 86.7326 61.1657 90.0652 58.4167 93.7009C56.6985 95.5187 58.4165 98.8514 60.8219 99.4573ZM1141.53 520.587L1142.22 521.193C1143.25 520.89 1143.59 520.284 1143.25 519.678C1143.25 519.375 1142.56 519.072 1142.56 519.072C1142.22 519.375 1141.87 519.981 1141.53 520.587ZM135.046 42.1958C136.076 42.1958 136.42 42.1958 136.764 42.1958C138.482 42.1958 140.2 40.075 139.513 38.8631C139.169 37.9542 137.451 37.3482 136.42 37.3482C134.702 37.0453 132.64 38.8631 132.984 40.075C133.327 40.9839 134.358 41.8928 135.046 42.1958ZM127.142 74.9166C127.829 75.2196 128.517 75.8256 129.204 76.1286H129.547L129.891 76.7345L129.204 76.4315C129.204 76.4315 129.204 76.4315 128.86 76.4315C127.142 76.7345 125.768 77.3404 124.393 77.9464C123.706 78.2493 123.019 79.1583 123.019 79.7642C123.019 80.3701 123.706 81.2791 124.393 81.582C127.829 83.7029 132.64 82.491 136.076 84.9147C136.764 85.5207 138.825 84.9147 139.856 84.6118C140.544 84.3088 141.918 84.0058 142.262 83.3999C143.293 79.4613 147.072 77.6434 150.165 75.5226C152.227 74.0078 152.227 72.7958 149.822 70.3721C149.478 70.0691 149.134 69.7662 148.791 69.7662L149.134 69.4632H148.791V69.7662C148.103 70.3721 147.073 70.0692 146.042 69.7662C146.042 69.7662 146.042 69.7662 146.042 69.4632C146.042 69.4632 146.042 69.4632 145.698 69.4632L146.042 69.7662C144.324 69.1602 142.605 68.5543 141.231 67.6454C140.544 67.3424 139.513 66.1305 139.856 65.8275C141.231 60.98 136.764 56.4355 139.169 51.5879C139.513 51.285 138.482 50.073 137.795 49.7701C134.015 47.6493 129.891 49.1641 129.891 52.7998C129.548 56.7384 129.547 60.677 126.798 64.3127C125.768 65.5245 126.799 66.4335 128.173 67.0395C128.517 67.3424 129.204 67.3424 129.204 67.6454C129.548 68.5543 128.86 68.8572 127.486 68.8572C125.424 69.1602 122.331 68.8573 121.988 70.9781C120.957 74.3107 125.08 74.0077 127.142 74.9166ZM137.451 71.8869L138.138 72.1899L137.107 71.8869L136.764 70.9781L137.451 71.8869ZM74.567 98.2455L74.9108 98.5485V98.2455C74.5671 98.2455 74.567 98.2455 74.567 98.2455ZM1153.56 516.346C1151.15 515.437 1148.75 516.649 1147.03 519.072C1146 520.587 1147.37 522.405 1150.12 523.314C1150.81 523.617 1151.84 523.617 1152.87 523.92C1153.56 523.314 1154.93 523.011 1155.62 522.102C1157.34 519.981 1156.31 517.558 1153.56 516.346ZM147.76 65.2216C147.073 64.9187 146.385 64.9186 145.354 64.9186C144.324 64.9186 143.98 65.8275 144.324 66.4335C145.011 67.3424 145.354 68.2513 146.042 69.1602C147.073 69.1602 147.76 69.1602 148.791 69.1602C148.447 67.6454 149.134 66.1305 147.76 65.2216ZM165.628 101.578C165.628 103.093 167.346 104.305 169.065 104.305C171.47 104.002 173.188 102.487 173.188 100.669C173.188 99.4573 171.126 97.9425 169.408 97.9425C167.347 97.9425 165.628 99.7603 165.628 101.578ZM140.887 91.883C140.2 91.883 139.513 93.095 139.513 93.7009C139.513 96.7306 140.887 99.1544 142.949 101.275C143.98 102.487 146.385 103.093 148.103 102.487C149.822 101.881 151.196 100.669 152.914 100.366C155.663 100.063 156.694 98.8514 157.725 96.7306C158.412 95.2158 159.443 94.0038 159.787 93.0949C161.161 90.6712 160.818 89.4593 158.412 88.5503C156.694 87.9444 155.319 87.0355 153.601 86.4296C152.914 86.1266 151.54 86.1267 150.852 86.7326C148.791 89.4593 145.011 90.9741 140.887 91.883ZM145.354 52.4968C145.698 51.5879 145.354 50.9819 144.667 50.679C144.323 50.9819 143.98 50.982 143.636 51.2849C143.293 52.1938 143.636 52.7998 144.667 53.1028C144.667 53.4058 145.354 52.7998 145.354 52.4968ZM149.822 82.188L150.165 83.0969L150.852 82.188H149.822ZM1380.35 387.28C1379.32 387.886 1378.29 388.795 1377.26 389.401C1375.54 390.916 1374.85 392.733 1375.54 394.854C1376.57 397.581 1377.26 400.308 1378.29 402.732C1378.29 403.034 1378.98 403.034 1378.98 403.337C1379.32 403.034 1379.66 402.731 1379.66 402.428C1380.7 399.096 1383.44 396.975 1385.16 394.248C1386.54 392.431 1385.85 389.704 1383.79 387.886C1383.1 387.28 1381.04 386.977 1380.35 387.28ZM104.463 107.638V107.941H104.806V107.638C104.806 107.638 104.806 107.638 104.463 107.638ZM100.683 103.396C99.9956 103.396 98.9647 104.305 98.9647 104.608C98.9647 105.517 99.3083 107.335 99.9955 107.335C101.37 107.941 103.088 107.638 104.463 107.638C104.119 106.426 103.432 104.911 102.745 103.699C102.745 103.396 101.37 103.093 100.683 103.396ZM103.775 110.97C103.775 111.576 104.119 112.485 104.806 112.788C106.525 114 110.304 113.697 111.679 111.879C112.023 111.576 112.022 110.97 112.022 110.97C111.335 109.758 110.648 108.243 109.274 107.032C107.899 105.82 106.181 107.032 104.806 107.638C104.463 109.152 104.119 110.061 103.775 110.97ZM129.204 89.4593C127.829 89.1563 126.799 88.8533 125.424 88.8533C124.737 88.8533 123.706 89.1563 123.019 89.4593C122.331 89.7623 121.644 90.6712 121.644 91.2772C121.3 91.8831 121.988 92.792 123.019 92.792C126.455 93.095 129.548 94.3068 132.64 95.2158C132.64 94.3068 132.64 93.095 132.64 92.186C131.953 90.0652 131.953 90.0653 129.204 89.4593ZM94.4976 72.7959C94.8412 72.7959 95.1848 72.1899 95.5284 71.8869C95.872 70.978 95.1847 70.3722 94.1538 70.0692C93.1229 70.0692 92.4357 70.6751 92.4357 71.584C92.7793 72.493 93.4667 73.0989 94.4976 72.7959ZM132.297 95.2158C132.297 95.5187 132.297 95.5188 132.297 95.8217H132.64V95.5187C132.297 95.5187 132.297 95.5187 132.297 95.2158ZM137.107 97.0336C136.42 96.7306 135.733 96.1246 135.046 96.1246C134.358 96.1246 133.671 96.1246 132.984 96.1246C132.984 96.7306 132.984 97.6395 132.984 98.2455C133.671 98.2455 134.358 98.2455 135.046 98.2455C135.389 97.9425 136.076 97.3366 137.107 97.0336ZM124.049 104.002C127.142 102.79 129.204 100.366 131.609 98.5485C128.86 98.5485 126.111 98.2455 123.019 98.2455C121.644 98.2455 120.27 99.7603 120.27 101.578C120.27 102.184 120.957 103.093 121.3 103.699C121.988 104.002 123.362 104.305 124.049 104.002ZM132.64 97.9425H132.297L131.953 98.2455H132.64C132.64 98.2455 132.64 98.2454 132.64 97.9425Z" fill="#006229"/>
</svg>
