<?xml version="1.0"?>
<svg xmlns="http://www.w3.org/2000/svg" xmlns:xlink="http://www.w3.org/1999/xlink" version="1.1" xml:space="preserve">
  <defs>

    <symbol id="loader" width="100%" height="100%" viewBox="22 22 44 44">
      <circle cx="44" cy="44" r="20.2" fill="none" stroke="currentColor" stroke-width="4"></circle>
    </symbol>

    <symbol id="burger" width="100%" height="100%" viewBox="0 0 48 48">
      <path d="M41,14H7a2,2,0,0,1,0-4H41A2,2,0,0,1,41,14Z" fill="currentColor"/>
      <path d="M41,26H7a2,2,0,0,1,0-4H41A2,2,0,0,1,41,26Z" fill="currentColor"/>
      <path d="M41,38H7a2,2,0,0,1,0-4H41A2,2,0,0,1,41,38Z" fill="currentColor"/>
    </symbol>

    <symbol id="close" width="100%" height="100%" viewBox="0 0 16 16">
      <path d="M1 15L15 1M1 1L15 15" stroke="currentColor" stroke-width="2" stroke-linecap="round" stroke-linejoin="round"/>
    </symbol>

    <symbol id="success" width="100%" height="100%" viewBox="0 0 68 68">
      <path fill-rule="evenodd" clip-rule="evenodd" d="M34 68C52.7777 68 68 52.7777 68 34C68 15.2223 52.7777 0 34 0C15.2223 0 0 15.2223 0 34C0 52.7777 15.2223 68 34 68ZM49.7552 28.5052C51.4149 26.8455 51.4149 24.1545 49.7552 22.4948C48.0955 20.8351 45.4045 20.8351 43.7448 22.4948L29.75 36.4896L24.2552 30.9948C22.5955 29.3351 19.9045 29.3351 18.2448 30.9948C16.5851 32.6545 16.5851 35.3455 18.2448 37.0052L26.7448 45.5052C28.4045 47.1649 31.0955 47.1649 32.7552 45.5052L49.7552 28.5052Z" fill="currentColor"/>
    </symbol>

    <symbol id="arrow-left" width="100%" height="100%" viewBox="0 0 21 12">
      <path d="M0.469669 5.46967C0.176777 5.76256 0.176777 6.23744 0.469669 6.53033L5.24264 11.3033C5.53553 11.5962 6.01041 11.5962 6.3033 11.3033C6.59619 11.0104 6.59619 10.5355 6.3033 10.2426L2.06066 6L6.3033 1.75736C6.59619 1.46446 6.59619 0.989591 6.3033 0.696698C6.01041 0.403804 5.53553 0.403804 5.24264 0.696698L0.469669 5.46967ZM21 5.25L1 5.25L1 6.75L21 6.75L21 5.25Z" fill="currentColor"/>
    </symbol>

    <symbol id="arrow-right" width="100%" height="100%" viewBox="0 0 21 12">
      <path d="M20.5303 5.46967C20.8232 5.76256 20.8232 6.23744 20.5303 6.53033L15.7574 11.3033C15.4645 11.5962 14.9896 11.5962 14.6967 11.3033C14.4038 11.0104 14.4038 10.5355 14.6967 10.2426L18.9393 6L14.6967 1.75736C14.4038 1.46446 14.4038 0.989591 14.6967 0.696698C14.9896 0.403804 15.4645 0.403804 15.7574 0.696698L20.5303 5.46967ZM-6.55668e-08 5.25L20 5.25L20 6.75L6.55668e-08 6.75L-6.55668e-08 5.25Z" fill="currentColor"/>
    </symbol>

    <symbol id="geo" width="100%" height="100%" viewBox="0 0 31 31">
      <path d="M15.5 0C8.9564 0 3.63281 5.32358 3.63281 11.8672C3.63281 13.9617 4.18621 16.021 5.23313 17.8223C5.47719 18.2422 5.75002 18.6515 6.04415 19.0387L14.9844 31H16.0156L24.9558 19.0387C25.2499 18.6515 25.5227 18.2423 25.7669 17.8223C26.8138 16.021 27.3672 13.9617 27.3672 11.8672C27.3672 5.32358 22.0436 0 15.5 0ZM15.5 15.8027C13.3299 15.8027 11.5645 14.0372 11.5645 11.8672C11.5645 9.69713 13.3299 7.93164 15.5 7.93164C17.6701 7.93164 19.4355 9.69713 19.4355 11.8672C19.4355 14.0372 17.6701 15.8027 15.5 15.8027Z" fill="currentColor"/>
    </symbol>

    <symbol id="play" width="100%" height="100%" viewBox="0 0 24 28">
      <path fill-rule="evenodd" clip-rule="evenodd" d="M22.7026 12.0162L3.85294 0.276715C3.29568 -0.0512235 2.60372 0.00341289 2.08112 0.00341289C-0.00927263 0.00341289 7.17194e-07 1.59872 7.17194e-07 2.00288V25.997C7.17194e-07 26.3387 -0.00915068 27.9966 2.08112 27.9966C2.60372 27.9966 3.29581 28.051 3.85294 27.7232L22.7025 15.9839C24.2497 15.0739 23.9823 14 23.9823 14C23.9823 14 24.2498 12.926 22.7026 12.0162Z" fill="currentColor"/>
    </symbol>

    <symbol id="user" width="100%" height="100%" viewBox="0 0 20 22">
      <path d="M9.99988 0C7.15506 0 4.8521 2.30296 4.8521 5.14778C4.8521 7.99261 7.15506 10.2956 9.99988 10.2956C12.8447 10.2956 15.1477 7.99261 15.1477 5.14778C15.1477 2.30296 12.8447 0 9.99988 0ZM12.0048 10.8916H7.99496C3.95801 10.8916 0.679688 14.1699 0.679688 18.2069V21.1872C0.679688 21.6478 1.0319 22 1.4925 22H18.5073C18.9679 22 19.3201 21.6478 19.3201 21.1872V18.2069C19.3201 14.1699 16.0418 10.8916 12.0048 10.8916Z" fill="currentColor"/>
    </symbol>

    <symbol id="file" width="100%" height="100%" viewBox="0 0 36 36">
      <path d="M10.4764 18.3075L15.6338 24.1463C15.9504 24.505 16.3397 24.7922 16.7758 24.9889C17.2119 25.1856 17.6849 25.2874 18.1633 25.2874C18.6418 25.2874 19.1147 25.1856 19.5508 24.9889C19.987 24.7922 20.3762 24.505 20.6929 24.1463L25.842 18.3168C26.0393 18.0931 26.1398 17.8002 26.1214 17.5025C26.103 17.2048 25.9671 16.9265 25.7437 16.7289C25.52 16.5315 25.2271 16.431 24.9294 16.4494C24.6316 16.4678 24.3534 16.6037 24.1557 16.8271L19.0066 22.6566C18.901 22.7761 18.7712 22.8717 18.6258 22.9372C18.4804 23.0027 18.3228 23.0366 18.1633 23.0366C18.0039 23.0366 17.8462 23.0027 17.7009 22.9372C17.5555 22.8717 17.4257 22.7761 17.32 22.6566L12.1627 16.8178C11.9629 16.6027 11.6869 16.4742 11.3937 16.4598C11.1005 16.4453 10.8132 16.546 10.5932 16.7404C10.3732 16.9348 10.2378 17.2074 10.216 17.5002C10.1942 17.7929 10.2877 18.0826 10.4764 18.3075Z" fill="currentColor"/>
      <path d="M5.7832 20.2492V26.9992C5.7833 27.8944 6.13896 28.7528 6.77195 29.3857C7.40494 30.0187 8.26342 30.3742 9.15856 30.3742H27.1586C28.0537 30.3742 28.9121 30.0187 29.545 29.3857C30.178 28.7528 30.5336 27.8943 30.5336 26.9992V20.2492C30.5261 19.9558 30.4044 19.6769 30.1942 19.472C29.984 19.267 29.7021 19.1523 29.4086 19.1523C29.115 19.1523 28.8331 19.267 28.6229 19.472C28.4128 19.6769 28.291 19.9558 28.2836 20.2492V26.9992C28.2836 27.2976 28.165 27.5838 27.9541 27.7947C27.7431 28.0057 27.4569 28.1242 27.1586 28.1242H9.15856C8.86016 28.1242 8.57398 28.0057 8.36294 27.7948C8.1519 27.5838 8.0333 27.2976 8.0332 26.9992V20.2492C8.02578 19.9558 7.90399 19.6769 7.69383 19.472C7.48366 19.267 7.20174 19.1523 6.9082 19.1523C6.61467 19.1523 6.33275 19.267 6.12258 19.472C5.91241 19.6769 5.79063 19.9558 5.7832 20.2492Z" fill="currentColor"/>
      <path d="M17.0332 6.18656V24.1869C17.0332 24.8076 17.5372 25.3119 18.1582 25.3119C18.4565 25.3116 18.7426 25.193 18.9535 24.982C19.1644 24.771 19.283 24.4849 19.2832 24.1866V6.18692C19.2758 5.89348 19.1541 5.61453 18.9439 5.40958C18.7338 5.20463 18.4519 5.08989 18.1584 5.08984C17.8648 5.0898 17.5829 5.20444 17.3727 5.40933C17.1625 5.61421 17.0407 5.89312 17.0332 6.18656Z" fill="currentColor"/>
    </symbol>

  </defs>
</svg>